<svg width="36" height="37" viewBox="0 0 36 37" fill="none" xmlns="http://www.w3.org/2000/svg">
<g id="Add Icon">
<path id="Vector" d="M16.5 20V24.5C16.5 24.925 16.6438 25.2813 16.9313 25.5688C17.2188 25.8563 17.575 26 18 26C18.425 26 18.7813 25.8563 19.0688 25.5688C19.3563 25.2813 19.5 24.925 19.5 24.5V20H24C24.425 20 24.7813 19.8563 25.0688 19.5688C25.3563 19.2813 25.5 18.925 25.5 18.5C25.5 18.075 25.3563 17.7188 25.0688 17.4313C24.7813 17.1438 24.425 17 24 17H19.5V12.5C19.5 12.075 19.3563 11.7188 19.0688 11.4313C18.7813 11.1438 18.425 11 18 11C17.575 11 17.2188 11.1438 16.9313 11.4313C16.6438 11.7188 16.5 12.075 16.5 12.5V17H12C11.575 17 11.2188 17.1438 10.9313 17.4313C10.6438 17.7188 10.5 18.075 10.5 18.5C10.5 18.925 10.6438 19.2813 10.9313 19.5688C11.2188 19.8563 11.575 20 12 20H16.5ZM7.5 32C6.675 32 5.96875 31.7063 5.38125 31.1188C4.79375 30.5313 4.5 29.825 4.5 29V8C4.5 7.175 4.79375 6.46875 5.38125 5.88125C5.96875 5.29375 6.675 5 7.5 5H28.5C29.325 5 30.0313 5.29375 30.6188 5.88125C31.2063 6.46875 31.5 7.175 31.5 8V29C31.5 29.825 31.2063 30.5313 30.6188 31.1188C30.0313 31.7063 29.325 32 28.5 32H7.5ZM7.5 29H28.5V8H7.5V29Z" fill="#0F1210"/>
</g>
</svg>
