<svg width="36" height="37" viewBox="0 0 36 37" fill="none" xmlns="http://www.w3.org/2000/svg">
<g id="Compass Icon">
<path id="Vector" d="M12.5625 24.875L20.1375 22.7C20.6375 22.55 21.0688 22.2938 21.4313 21.9313C21.7938 21.5688 22.05 21.1375 22.2 20.6375L24.375 13.0625C24.45 12.7875 24.3813 12.5438 24.1688 12.3313C23.9563 12.1188 23.7125 12.05 23.4375 12.125L15.8625 14.3C15.3625 14.45 14.9313 14.7063 14.5688 15.0688C14.2063 15.4313 13.95 15.8625 13.8 16.3625L11.625 23.9375C11.55 24.2125 11.6188 24.4563 11.8313 24.6688C12.0438 24.8813 12.2875 24.95 12.5625 24.875ZM18 20.75C17.375 20.75 16.8438 20.5313 16.4063 20.0938C15.9688 19.6563 15.75 19.125 15.75 18.5C15.75 17.875 15.9688 17.3438 16.4063 16.9063C16.8438 16.4688 17.375 16.25 18 16.25C18.625 16.25 19.1563 16.4688 19.5938 16.9063C20.0313 17.3438 20.25 17.875 20.25 18.5C20.25 19.125 20.0313 19.6563 19.5938 20.0938C19.1563 20.5313 18.625 20.75 18 20.75ZM18 33.5C15.925 33.5 13.975 33.1063 12.15 32.3188C10.325 31.5313 8.7375 30.4625 7.3875 29.1125C6.0375 27.7625 4.96875 26.175 4.18125 24.35C3.39375 22.525 3 20.575 3 18.5C3 16.425 3.39375 14.475 4.18125 12.65C4.96875 10.825 6.0375 9.2375 7.3875 7.8875C8.7375 6.5375 10.325 5.46875 12.15 4.68125C13.975 3.89375 15.925 3.5 18 3.5C20.075 3.5 22.025 3.89375 23.85 4.68125C25.675 5.46875 27.2625 6.5375 28.6125 7.8875C29.9625 9.2375 31.0313 10.825 31.8188 12.65C32.6063 14.475 33 16.425 33 18.5C33 20.575 32.6063 22.525 31.8188 24.35C31.0313 26.175 29.9625 27.7625 28.6125 29.1125C27.2625 30.4625 25.675 31.5313 23.85 32.3188C22.025 33.1063 20.075 33.5 18 33.5ZM18 30.5C21.325 30.5 24.1563 29.3313 26.4938 26.9938C28.8313 24.6563 30 21.825 30 18.5C30 15.175 28.8313 12.3438 26.4938 10.0063C24.1563 7.66875 21.325 6.5 18 6.5C14.675 6.5 11.8438 7.66875 9.50625 10.0063C7.16875 12.3438 6 15.175 6 18.5C6 21.825 7.16875 24.6563 9.50625 26.9938C11.8438 29.3313 14.675 30.5 18 30.5Z" fill="#0F1210"/>
</g>
</svg>
