<svg width="36" height="37" viewBox="0 0 36 37" fill="none" xmlns="http://www.w3.org/2000/svg">
<g id="Home Icon Container">
<path id="Vector" d="M9 29H13.5V21.5C13.5 21.075 13.6438 20.7188 13.9313 20.4313C14.2188 20.1438 14.575 20 15 20H21C21.425 20 21.7813 20.1438 22.0688 20.4313C22.3563 20.7188 22.5 21.075 22.5 21.5V29H27V15.5L18 8.75L9 15.5V29ZM6 29V15.5C6 15.025 6.10625 14.575 6.31875 14.15C6.53125 13.725 6.825 13.375 7.2 13.1L16.2 6.35C16.725 5.95 17.325 5.75 18 5.75C18.675 5.75 19.275 5.95 19.8 6.35L28.8 13.1C29.175 13.375 29.4688 13.725 29.6813 14.15C29.8938 14.575 30 15.025 30 15.5V29C30 29.825 29.7063 30.5313 29.1188 31.1188C28.5313 31.7063 27.825 32 27 32H21C20.575 32 20.2188 31.8563 19.9313 31.5688C19.6438 31.2813 19.5 30.925 19.5 30.5V23H16.5V30.5C16.5 30.925 16.3563 31.2813 16.0688 31.5688C15.7813 31.8563 15.425 32 15 32H9C8.175 32 7.46875 31.7063 6.88125 31.1188C6.29375 30.5313 6 29.825 6 29Z" fill="#0F1210"/>
</g>
</svg>
