<svg width="22" height="21" viewBox="0 0 22 21" fill="none" xmlns="http://www.w3.org/2000/svg">
<g id="Frame" clip-path="url(#clip0_178_335)">
<g id="SVGRepo_iconCarrier">
<path id="Vector" d="M17.6575 3.80099C16.4535 3.25034 15.1749 2.849 13.8403 2.625C13.6722 2.91434 13.4855 3.30633 13.3549 3.61434C11.9353 3.40899 10.5259 3.40899 9.12595 3.61434C8.99528 3.30633 8.79927 2.91434 8.6406 2.625C7.29662 2.849 6.01795 3.25034 4.82236 3.80099C2.40503 7.36632 1.75169 10.8476 2.07836 14.2823C3.68368 15.4489 5.23303 16.1583 6.7553 16.625C7.12863 16.121 7.46464 15.5796 7.75398 15.0103C7.2033 14.805 6.68064 14.553 6.17664 14.2543C6.3073 14.161 6.43797 14.0584 6.55931 13.9556C9.60197 15.3464 12.8975 15.3464 15.9029 13.9556C16.0335 14.0584 16.1549 14.161 16.2855 14.2543C15.7815 14.553 15.2589 14.805 14.7082 15.0103C14.9975 15.5796 15.3335 16.121 15.7069 16.625C17.2282 16.1583 18.7869 15.4489 20.3838 14.2823C20.7851 10.3064 19.7482 6.85302 17.6575 3.80099ZM8.17397 12.1636C7.25929 12.1636 6.51262 11.333 6.51262 10.3156C6.51262 9.29836 7.24062 8.46765 8.17397 8.46765C9.09795 8.46765 9.85392 9.29836 9.83525 10.3156C9.83525 11.333 9.09795 12.1636 8.17397 12.1636ZM14.3069 12.1636C13.3922 12.1636 12.6446 11.333 12.6446 10.3156C12.6446 9.29836 13.3735 8.46765 14.3069 8.46765C15.2309 8.46765 15.9869 9.29836 15.9682 10.3156C15.9682 11.333 15.2403 12.1636 14.3069 12.1636Z" stroke="#0F1210" stroke-width="1.5" stroke-linejoin="round"/>
</g>
</g>
<defs>
<clipPath id="clip0_178_335">
<rect width="21" height="21" fill="white" transform="translate(0.5)"/>
</clipPath>
</defs>
</svg>
