<svg width="22" height="21" viewBox="0 0 22 21" fill="none" xmlns="http://www.w3.org/2000/svg">
<g id="Frame">
<g id="SVGRepo_iconCarrier">
<path id="Vector" d="M2.55399 6.33906C2.59491 5.44481 2.73493 4.86807 2.92429 4.37852L2.92683 4.37175C3.11448 3.87358 3.40843 3.42229 3.78824 3.04928L3.79357 3.04405L3.7988 3.03872C4.17212 2.65843 4.62357 2.36476 5.12131 2.17761L5.12989 2.17433C5.61833 1.98438 6.19394 1.84488 7.08894 1.80396M2.55399 6.33906C2.51096 7.29452 2.5 7.5907 2.5 10.068C2.5 12.5458 2.51036 12.8413 2.55396 13.797M2.55399 6.33906V6.58007M7.08894 1.80396C8.04462 1.76036 8.34069 1.75 10.818 1.75C13.2953 1.75 13.5912 1.76096 14.5466 1.80397M7.08894 1.80396H7.33057M2.55396 13.797C2.59488 14.692 2.73438 15.2676 2.92433 15.756L2.92761 15.7647M2.55396 13.797L2.56862 13.8742M2.55396 13.797V13.5554M2.55399 6.58007C2.55733 6.5035 2.56093 6.42368 2.56479 6.3388C2.60964 5.36037 2.77597 4.7887 2.93451 4.38322C3.1397 3.85369 3.39961 3.45411 3.79671 3.05538C4.17415 2.66819 4.63299 2.36982 5.13997 2.18188C5.54365 2.02531 6.11381 1.85948 7.08854 1.8148C7.1737 1.81093 7.25376 1.80732 7.33057 1.80396M2.55399 6.58007C2.51858 7.38976 2.51096 7.83642 2.51096 10.068C2.51096 12.2988 2.51858 12.7461 2.55396 13.5554M2.55399 6.58007L2.55396 13.5554M2.92761 15.7647C3.11476 16.2624 3.40842 16.7138 3.78872 17.0872L3.79404 17.0924L3.79926 17.0977C4.17229 17.4775 4.6236 17.7715 5.12177 17.9591L5.12921 17.9619C5.6181 18.1515 6.19399 18.2911 7.08894 18.332M2.92761 15.7647L2.9164 15.7055M2.9164 15.7055L2.56862 13.8742M2.9164 15.7055C2.76869 15.3154 2.61659 14.7709 2.56862 13.8742M2.9164 15.7055C2.92158 15.7193 2.92675 15.7328 2.93192 15.7461C3.11923 16.251 3.41602 16.7083 3.80097 17.0849C4.17747 17.4698 4.63454 17.7665 5.13934 17.9539C5.54445 18.1116 6.11528 18.2766 7.0888 18.3212C8.07124 18.3659 8.37477 18.375 10.818 18.375C13.2612 18.375 13.565 18.3659 14.5475 18.3212C15.5221 18.2765 16.0923 18.1107 16.496 17.9541C17.0011 17.7669 17.4584 17.47 17.835 17.0849C18.2198 16.7084 18.5166 16.2514 18.7039 15.7466C18.8617 15.3415 19.0266 14.7707 19.0711 13.7972C19.1158 12.8147 19.125 12.5106 19.125 10.068C19.125 7.62538 19.1158 7.32099 19.0711 6.33854C19.0262 5.35874 18.8589 4.78772 18.7016 4.38368C18.496 3.85282 18.2352 3.45132 17.8344 3.05049C17.4344 2.65124 17.034 2.39032 16.5027 2.18447C16.0972 2.02595 15.5258 1.85965 14.5475 1.8148C14.4623 1.81093 14.3824 1.80733 14.3056 1.80397M2.56862 13.8742C2.56726 13.8489 2.56599 13.8233 2.5648 13.7974C2.56093 13.7123 2.55732 13.6322 2.55396 13.5554M14.3056 1.80397H14.5466M14.3056 1.80397L7.33057 1.80396M14.3056 1.80397C13.4962 1.76859 13.049 1.76096 10.818 1.76096C8.5871 1.76096 8.13982 1.76858 7.33057 1.80396M14.5466 1.80397C15.441 1.84489 16.0178 1.98488 16.5075 2.17426L16.5142 2.17683C17.0123 2.36448 17.4637 2.65843 17.8367 3.03824L17.8418 3.04351L17.8472 3.04869C18.227 3.42173 18.5209 3.87315 18.7084 4.37147L18.7116 4.37989C18.9016 4.86833 19.0411 5.44394 19.082 6.33894M19.082 13.797C19.0411 14.6919 18.9016 15.2679 18.7119 15.7567L18.7091 15.7642C18.5215 16.2624 18.2275 16.7136 17.8477 17.0866L17.8424 17.0919L17.8372 17.0972C17.4638 17.4775 17.0124 17.7712 16.5146 17.9583L16.5061 17.9616C16.0176 18.1516 15.442 18.2911 14.547 18.332M9.33859 13.6396C9.80759 13.8338 10.3103 13.9339 10.818 13.9339C11.8433 13.9339 12.8266 13.5265 13.5516 12.8016C14.2766 12.0766 14.6839 11.0932 14.6839 10.068C14.6839 9.04269 14.2766 8.05938 13.5516 7.33438C12.8266 6.60939 11.8433 6.20209 10.818 6.20209C10.3103 6.20209 9.80759 6.30208 9.33859 6.49637C8.8695 6.69064 8.44337 6.9754 8.08439 7.33438C7.72541 7.69337 7.44065 8.11954 7.24637 8.58857C7.05209 9.05756 6.9521 9.56034 6.9521 10.068C6.9521 10.5757 7.05209 11.0784 7.24637 11.5474C7.44065 12.0165 7.72541 12.4426 8.08439 12.8016C8.44337 13.1605 8.8695 13.4453 9.33859 13.6396ZM8.07578 7.32577C8.80309 6.59849 9.78948 6.18991 10.818 6.18991C11.8465 6.18991 12.8329 6.59849 13.5602 7.32577C14.2875 8.05305 14.696 9.03945 14.696 10.068C14.696 11.0965 14.2875 12.0829 13.5602 12.8102C12.8329 13.5375 11.8465 13.946 10.818 13.946C9.78948 13.946 8.80309 13.5375 8.07578 12.8102C7.3485 12.0829 6.93992 11.0965 6.93992 10.068C6.93992 9.03945 7.3485 8.05305 8.07578 7.32577ZM16.8798 5.287C16.8798 5.58139 16.7628 5.86372 16.5547 6.07188C16.3466 6.28004 16.0642 6.39699 15.7698 6.39699C15.4754 6.39699 15.1931 6.28004 14.985 6.07188C14.7768 5.86372 14.6598 5.58139 14.6598 5.287C14.6598 4.99262 14.7768 4.71029 14.985 4.50214C15.1931 4.29397 15.4754 4.17703 15.7698 4.17703C16.0642 4.17703 16.3466 4.29397 16.5547 4.50214C16.7628 4.71029 16.8798 4.99262 16.8798 5.287Z" stroke="#0F1210" stroke-width="1.5" stroke-linejoin="round"/>
</g>
</g>
</svg>
