<svg width="22" height="21" viewBox="0 0 22 21" fill="none" xmlns="http://www.w3.org/2000/svg">
<g id="Frame">
<g id="SVGRepo_iconCarrier">
<path id="Vector" d="M15.219 4.4926C14.5776 3.7572 14.192 2.79829 14.192 1.75H13.3882M15.219 4.4926C15.8036 5.16305 16.5952 5.65064 17.4965 5.84157C17.7766 5.90252 18.0688 5.93506 18.3733 5.93506V8.94171C16.8144 8.94171 15.3691 8.44201 14.1918 7.59685V13.7119C14.1918 16.7674 11.7072 19.25 8.65843 19.25C7.06293 19.25 5.62173 18.5673 4.61086 17.4825C3.68931 16.4911 3.125 15.1665 3.125 13.7119C3.125 10.7011 5.53648 8.24695 8.52444 8.18194M15.219 4.4926C15.2035 4.48241 15.1879 4.47213 15.1724 4.46175M6.61236 15.1827C6.31195 14.7683 6.13332 14.2605 6.13332 13.7078C6.13332 12.3142 7.26598 11.1806 8.6585 11.1806C8.91831 11.1806 9.16999 11.2252 9.40545 11.2983V8.22668C9.16186 8.19414 8.91425 8.1738 8.6585 8.1738C8.61381 8.1738 8.2541 8.19773 8.20944 8.19773M13.3839 1.75H11.1835L11.1795 13.8053C11.1308 15.1543 10.0184 16.2392 8.65843 16.2392C7.81399 16.2392 7.07105 15.8207 6.60824 15.1868" stroke="#0F1210" stroke-width="1.5" stroke-linejoin="round"/>
</g>
</g>
</svg>
