<svg width="22" height="21" viewBox="0 0 22 21" fill="none" xmlns="http://www.w3.org/2000/svg">
<g id="Frame" clip-path="url(#clip0_178_327)">
<g id="SVGRepo_iconCarrier">
<path id="Vector" fill-rule="evenodd" clip-rule="evenodd" d="M18.5205 3.90249C19.3493 4.12434 20.0007 4.77562 20.2225 5.60438C20.6234 7.10501 20.625 10.2379 20.625 10.2379C20.625 10.2379 20.625 13.3706 20.2225 14.8712C20.0007 15.7 19.3493 16.3513 18.5205 16.5731C17.02 16.9756 11 16.9756 11 16.9756C11 16.9756 4.98001 16.9756 3.47937 16.5731C2.65062 16.3513 1.99934 15.7 1.77749 14.8712C1.375 13.3706 1.375 10.2379 1.375 10.2379C1.375 10.2379 1.375 7.10501 1.77749 5.60438C1.99934 4.77562 2.65062 4.12434 3.47937 3.90249C4.98001 3.5 11 3.5 11 3.5C11 3.5 17.02 3.5 18.5205 3.90249ZM14.0742 10.2381L9.07315 13.1253V7.35088L14.0742 10.2381Z" stroke="#0F1210" stroke-width="1.5" stroke-linejoin="round"/>
</g>
</g>
<defs>
<clipPath id="clip0_178_327">
<rect width="21" height="21" fill="white" transform="translate(0.5)"/>
</clipPath>
</defs>
</svg>
