<svg width="33" height="32" viewBox="0 0 33 32" fill="none" xmlns="http://www.w3.org/2000/svg">
<g id="Icon">
<path id="Vector" d="M19.1667 18.6666C19.5445 18.6666 19.8611 18.5388 20.1167 18.2833C20.3722 18.0277 20.5 17.7111 20.5 17.3333V14.6666H23.1667C23.5445 14.6666 23.8611 14.5388 24.1167 14.2833C24.3722 14.0277 24.5 13.7111 24.5 13.3333C24.5 12.9555 24.3722 12.6388 24.1167 12.3833C23.8611 12.1277 23.5445 12 23.1667 12H20.5V9.33329C20.5 8.95551 20.3722 8.63885 20.1167 8.38329C19.8611 8.12774 19.5445 7.99996 19.1667 7.99996C18.7889 7.99996 18.4722 8.12774 18.2167 8.38329C17.9611 8.63885 17.8334 8.95551 17.8334 9.33329V12H15.1667C14.7889 12 14.4722 12.1277 14.2167 12.3833C13.9611 12.6388 13.8334 12.9555 13.8334 13.3333C13.8334 13.7111 13.9611 14.0277 14.2167 14.2833C14.4722 14.5388 14.7889 14.6666 15.1667 14.6666H17.8334V17.3333C17.8334 17.7111 17.9611 18.0277 18.2167 18.2833C18.4722 18.5388 18.7889 18.6666 19.1667 18.6666ZM11.1667 24C10.4334 24 9.80558 23.7388 9.28335 23.2166C8.76113 22.6944 8.50002 22.0666 8.50002 21.3333V5.33329C8.50002 4.59996 8.76113 3.97218 9.28335 3.44996C9.80558 2.92774 10.4334 2.66663 11.1667 2.66663H27.1667C27.9 2.66663 28.5278 2.92774 29.05 3.44996C29.5722 3.97218 29.8334 4.59996 29.8334 5.33329V21.3333C29.8334 22.0666 29.5722 22.6944 29.05 23.2166C28.5278 23.7388 27.9 24 27.1667 24H11.1667ZM11.1667 21.3333H27.1667V5.33329H11.1667V21.3333ZM5.83335 29.3333C5.10002 29.3333 4.47224 29.0722 3.95002 28.55C3.4278 28.0277 3.16669 27.4 3.16669 26.6666V9.33329C3.16669 8.95551 3.29446 8.63885 3.55002 8.38329C3.80558 8.12774 4.12224 7.99996 4.50002 7.99996C4.8778 7.99996 5.19446 8.12774 5.45002 8.38329C5.70558 8.63885 5.83335 8.95551 5.83335 9.33329V26.6666H23.1667C23.5445 26.6666 23.8611 26.7944 24.1167 27.05C24.3722 27.3055 24.5 27.6222 24.5 28C24.5 28.3777 24.3722 28.6944 24.1167 28.95C23.8611 29.2055 23.5445 29.3333 23.1667 29.3333H5.83335Z" fill="#A1DBB2"/>
</g>
</svg>
