<svg width="33" height="32" viewBox="0 0 33 32" fill="none" xmlns="http://www.w3.org/2000/svg">
<g id="Icon">
<path id="Vector" d="M16.5 16.6333L19.0333 18.1666C19.2777 18.3222 19.5222 18.3166 19.7666 18.15C20.0111 17.9833 20.1 17.7555 20.0333 17.4666L19.3666 14.5666L21.6333 12.6C21.8555 12.4 21.9222 12.1611 21.8333 11.8833C21.7444 11.6055 21.5444 11.4555 21.2333 11.4333L18.2666 11.2L17.1 8.46663C16.9889 8.19996 16.7889 8.06663 16.5 8.06663C16.2111 8.06663 16.0111 8.19996 15.9 8.46663L14.7333 11.2L11.7666 11.4333C11.4555 11.4555 11.2555 11.6055 11.1666 11.8833C11.0777 12.1611 11.1444 12.4 11.3666 12.6L13.6333 14.5666L12.9666 17.4666C12.9 17.7555 12.9888 17.9833 13.2333 18.15C13.4777 18.3166 13.7222 18.3222 13.9666 18.1666L16.5 16.6333ZM8.49996 24L5.43329 27.0666C5.01107 27.4888 4.52774 27.5833 3.98329 27.35C3.43885 27.1166 3.16663 26.7 3.16663 26.1V5.33329C3.16663 4.59996 3.42774 3.97218 3.94996 3.44996C4.47218 2.92774 5.09996 2.66663 5.83329 2.66663H27.1666C27.9 2.66663 28.5277 2.92774 29.05 3.44996C29.5722 3.97218 29.8333 4.59996 29.8333 5.33329V21.3333C29.8333 22.0666 29.5722 22.6944 29.05 23.2166C28.5277 23.7388 27.9 24 27.1666 24H8.49996ZM7.36663 21.3333H27.1666V5.33329H5.83329V22.8333L7.36663 21.3333Z" fill="#A1DBB2"/>
</g>
</svg>
