<svg width="6" height="11" viewBox="0 0 6 11" fill="none" xmlns="http://www.w3.org/2000/svg">
<path id="Vector" d="M4.02085 5.52083L0.770854 2.27083C0.618076 2.11806 0.541687 1.92361 0.541687 1.6875C0.541687 1.45139 0.618076 1.25694 0.770854 1.10417C0.923631 0.951389 1.11808 0.875 1.35419 0.875C1.5903 0.875 1.78474 0.951389 1.93752 1.10417L5.77085 4.9375C5.85419 5.02083 5.91322 5.11111 5.94794 5.20833C5.98266 5.30556 6.00002 5.40972 6.00002 5.52083C6.00002 5.63194 5.98266 5.73611 5.94794 5.83333C5.91322 5.93056 5.85419 6.02083 5.77085 6.10417L1.93752 9.9375C1.78474 10.0903 1.5903 10.1667 1.35419 10.1667C1.11808 10.1667 0.923631 10.0903 0.770854 9.9375C0.618076 9.78472 0.541687 9.59028 0.541687 9.35417C0.541687 9.11806 0.618076 8.92361 0.770854 8.77083L4.02085 5.52083Z" fill="#0F1210" fill-opacity="0.75"/>
</svg>
