<svg width="31" height="31" viewBox="0 0 31 31" fill="none" xmlns="http://www.w3.org/2000/svg">
<g id="Back Button">
<path id="Vector" d="M10.1072 14.7916L16.4364 21.1208C16.6947 21.3791 16.8185 21.6805 16.8078 22.025C16.797 22.3694 16.6625 22.6708 16.4041 22.9291C16.1458 23.1659 15.8444 23.2897 15.5 23.3005C15.1555 23.3112 14.8541 23.1875 14.5958 22.9291L6.07078 14.4041C5.94162 14.275 5.85012 14.135 5.79631 13.9843C5.74249 13.8336 5.71558 13.6722 5.71558 13.5C5.71558 13.3277 5.74249 13.1663 5.79631 13.0156C5.85012 12.8649 5.94162 12.725 6.07078 12.5958L14.5958 4.07078C14.8326 3.83398 15.1286 3.71558 15.4838 3.71558C15.839 3.71558 16.1458 3.83398 16.4041 4.07078C16.6625 4.32912 16.7916 4.63589 16.7916 4.9911C16.7916 5.34631 16.6625 5.65308 16.4041 5.91141L10.1072 12.2083H24.5416C24.9076 12.2083 25.2144 12.3321 25.4619 12.5796C25.7095 12.8272 25.8333 13.134 25.8333 13.5C25.8333 13.8659 25.7095 14.1727 25.4619 14.4203C25.2144 14.6678 24.9076 14.7916 24.5416 14.7916H10.1072Z" fill="#0F1210"/>
</g>
</svg>
