<svg width="29" height="29" viewBox="0 0 29 29" fill="none" xmlns="http://www.w3.org/2000/svg">
<g id="Previous Button">
<path id="Vector" d="M13.775 14.5001L18.4875 9.78763C18.709 9.5661 18.8198 9.28416 18.8198 8.9418C18.8198 8.59944 18.709 8.31749 18.4875 8.09596C18.2659 7.87444 17.984 7.76367 17.6416 7.76367C17.2993 7.76367 17.0173 7.87444 16.7958 8.09596L11.2375 13.6543C11.1166 13.7751 11.031 13.906 10.9807 14.047C10.9304 14.188 10.9052 14.339 10.9052 14.5001C10.9052 14.6612 10.9304 14.8123 10.9807 14.9533C11.031 15.0942 11.1166 15.2251 11.2375 15.346L16.7958 20.9043C17.0173 21.1258 17.2993 21.2366 17.6416 21.2366C17.984 21.2366 18.2659 21.1258 18.4875 20.9043C18.709 20.6828 18.8198 20.4008 18.8198 20.0585C18.8198 19.7161 18.709 19.4342 18.4875 19.2126L13.775 14.5001Z" fill="#F7F9F7"/>
</g>
</svg>
