<svg width="29" height="29" viewBox="0 0 29 29" fill="none" xmlns="http://www.w3.org/2000/svg">
<g id="Next Button">
<path id="Vector" d="M15.225 14.5001L10.5125 9.78763C10.291 9.5661 10.1802 9.28416 10.1802 8.9418C10.1802 8.59944 10.291 8.31749 10.5125 8.09596C10.7341 7.87444 11.016 7.76367 11.3584 7.76367C11.7007 7.76367 11.9827 7.87444 12.2042 8.09596L17.7625 13.6543C17.8834 13.7751 17.969 13.906 18.0193 14.047C18.0696 14.188 18.0948 14.339 18.0948 14.5001C18.0948 14.6612 18.0696 14.8123 18.0193 14.9533C17.969 15.0942 17.8834 15.2251 17.7625 15.346L12.2042 20.9043C11.9827 21.1258 11.7007 21.2366 11.3584 21.2366C11.016 21.2366 10.7341 21.1258 10.5125 20.9043C10.291 20.6828 10.1802 20.4008 10.1802 20.0585C10.1802 19.7161 10.291 19.4342 10.5125 19.2126L15.225 14.5001Z" fill="#F7F9F7"/>
</g>
</svg>
