<svg width="18" height="18" viewBox="0 0 18 18" fill="none" xmlns="http://www.w3.org/2000/svg">
<g id="Star">
<path id="Vector" d="M9.41862 5.66145V11.5091L11.7802 12.9523L11.1617 10.2534L13.2421 8.4541L10.5057 8.21044L9.41862 5.66145ZM9.41862 13.2709L6.30735 15.1452C6.1699 15.2327 6.02621 15.2702 5.87627 15.2577C5.72633 15.2452 5.59513 15.1952 5.48267 15.1077C5.37022 15.0203 5.28275 14.9109 5.22028 14.7797C5.1578 14.6485 5.14531 14.5017 5.18279 14.3393L6.00747 10.7969L3.2523 8.41661C3.12735 8.30415 3.04926 8.17608 3.01802 8.03239C2.98678 7.88869 2.99616 7.74812 3.04614 7.61068C3.09612 7.47323 3.17109 7.36078 3.27105 7.27331C3.37101 7.18585 3.50845 7.12962 3.68338 7.10463L7.31945 6.786L8.72514 3.44982C8.78762 3.29988 8.88445 3.18743 9.01565 3.11246C9.14685 3.03749 9.28117 3 9.41862 3C9.55606 3 9.69039 3.03749 9.82158 3.11246C9.95278 3.18743 10.0496 3.29988 10.1121 3.44982L11.5178 6.786L15.1539 7.10463C15.3288 7.12962 15.4662 7.18585 15.5662 7.27331C15.6661 7.36078 15.7411 7.47323 15.7911 7.61068C15.8411 7.74812 15.8505 7.88869 15.8192 8.03239C15.788 8.17608 15.7099 8.30415 15.5849 8.41661L12.8298 10.7969L13.6544 14.3393C13.6919 14.5017 13.6794 14.6485 13.617 14.7797C13.5545 14.9109 13.467 15.0203 13.3546 15.1077C13.2421 15.1952 13.1109 15.2452 12.961 15.2577C12.811 15.2702 12.6673 15.2327 12.5299 15.1452L9.41862 13.2709Z" fill="#4CBD6E"/>
</g>
</svg>
