<svg width="234" height="172" viewBox="0 0 234 172" fill="none" xmlns="http://www.w3.org/2000/svg">
<path fill-rule="evenodd" clip-rule="evenodd" d="M52.2467 42.107C48.4247 51.1773 46.2479 61.7131 46.2479 73.7143V164.015C46.2479 168.433 49.8296 172 54.2479 172H184.248C188.666 172 192.248 168.433 192.248 164.015V140.287C192.54 140.309 192.835 140.32 193.135 140.32C194.692 140.32 196.164 140 197.551 139.36C198.959 138.72 200.239 137.749 201.391 136.448L199.375 134.784C197.54 136.789 195.46 137.792 193.135 137.792C192.833 137.792 192.537 137.777 192.248 137.747V119.853C192.537 119.823 192.833 119.808 193.135 119.808C195.46 119.808 197.54 120.811 199.375 122.816L201.391 121.152C200.239 119.851 198.959 118.88 197.551 118.24C196.164 117.6 194.692 117.28 193.135 117.28C192.835 117.28 192.54 117.291 192.248 117.313V73.7143C192.248 -10.1327 85.9935 -22.4503 54.7747 36.7615V31.6H52.2467V42.107ZM52.2467 42.107V54H62.6787V51.568H54.7747V36.7615C53.8672 38.4829 53.023 40.2647 52.2467 42.107ZM192.248 117.313C191.023 117.406 189.868 117.694 188.783 118.176C187.46 118.773 186.298 119.584 185.295 120.608C184.292 121.632 183.503 122.848 182.927 124.256C182.351 125.664 182.063 127.179 182.063 128.8C182.063 130.485 182.34 132.021 182.895 133.408C183.471 134.773 184.271 135.968 185.295 136.992C186.298 138.016 187.46 138.827 188.783 139.424C189.868 139.906 191.023 140.194 192.248 140.287V137.747C191.391 137.658 190.588 137.439 189.839 137.088C188.836 136.619 187.94 135.979 187.151 135.168C186.383 134.379 185.775 133.451 185.327 132.384C184.9 131.296 184.687 130.101 184.687 128.8C184.687 127.52 184.9 126.347 185.327 125.28C185.775 124.192 186.383 123.243 187.151 122.432C187.94 121.621 188.836 120.981 189.839 120.512C190.588 120.161 191.391 119.942 192.248 119.853V117.313ZM0.245239 54H12.3412V51.696H2.77324V44.112H10.5172V41.936H2.77324V33.904H12.3412V31.6H0.245239V54ZM21.966 42.64L14.894 54H17.934L23.534 44.688L29.134 54H32.174L25.07 42.64L31.982 31.6H28.974L23.534 40.656L18.126 31.6H15.086L21.966 42.64ZM35.0897 31.6L35.0577 54H37.5857V44.56H43.5377C44.3271 44.56 45.0631 44.3787 45.7457 44.016C46.4497 43.632 47.0577 43.1307 47.5697 42.512C48.1031 41.872 48.5191 41.1787 48.8177 40.432C49.1377 39.664 49.2977 38.8853 49.2977 38.096C49.2977 36.9653 49.0524 35.9093 48.5617 34.928C48.0711 33.9253 47.3991 33.1253 46.5457 32.528C45.6924 31.9093 44.7217 31.6 43.6337 31.6H35.0897ZM43.4737 42.096H37.5857V34.096H43.5697C44.1671 34.096 44.7111 34.2773 45.2017 34.64C45.6924 35.0027 46.0764 35.4933 46.3537 36.112C46.6524 36.7093 46.8017 37.3707 46.8017 38.096C46.8017 38.736 46.6417 39.3653 46.3217 39.984C46.0231 40.6027 45.6177 41.1147 45.1057 41.52C44.6151 41.904 44.0711 42.096 43.4737 42.096ZM85.9187 47.344C86.4947 45.936 86.7827 44.4213 86.7827 42.8C86.7827 41.2427 86.4947 39.7707 85.9187 38.384C85.3641 36.9973 84.5854 35.7707 83.5827 34.704C82.5801 33.6373 81.4174 32.8053 80.0947 32.208C78.7721 31.5893 77.3534 31.28 75.8387 31.28C74.3667 31.28 72.9694 31.5787 71.6467 32.176C70.3241 32.7733 69.1507 33.6053 68.1267 34.672C67.1027 35.7173 66.3027 36.944 65.7267 38.352C65.1507 39.7387 64.8627 41.2213 64.8627 42.8C64.8627 44.4 65.1401 45.8933 65.6947 47.28C66.2707 48.6667 67.0601 49.8933 68.0627 50.96C69.0654 52.0053 70.2281 52.8267 71.5507 53.424C72.8734 54.0213 74.3027 54.32 75.8387 54.32C77.3534 54.32 78.7721 54.032 80.0947 53.456C81.4174 52.8587 82.5801 52.0373 83.5827 50.992C84.5854 49.9467 85.3641 48.7307 85.9187 47.344ZM83.5187 39.312C83.9667 40.4 84.1907 41.5627 84.1907 42.8C84.1907 44.0587 83.9774 45.2427 83.5507 46.352C83.1241 47.44 82.5267 48.4107 81.7587 49.264C80.9907 50.096 80.1054 50.7573 79.1027 51.248C78.1001 51.7173 77.0121 51.952 75.8387 51.952C74.6654 51.952 73.5667 51.7173 72.5427 51.248C71.5401 50.7573 70.6547 50.096 69.8867 49.264C69.1401 48.4107 68.5427 47.4293 68.0947 46.32C67.6681 45.2107 67.4547 44.0373 67.4547 42.8C67.4547 41.5627 67.6681 40.4 68.0947 39.312C68.5427 38.2027 69.1401 37.232 69.8867 36.4C70.6547 35.5467 71.5401 34.8853 72.5427 34.416C73.5667 33.9253 74.6654 33.68 75.8387 33.68C76.9907 33.68 78.0681 33.9253 79.0707 34.416C80.0947 34.8853 80.9801 35.5467 81.7267 36.4C82.4947 37.232 83.0921 38.2027 83.5187 39.312ZM101.523 54H104.531L98.7075 44.432C99.6888 44.304 100.563 43.92 101.331 43.28C102.099 42.64 102.707 41.8613 103.155 40.944C103.625 40.0267 103.859 39.0773 103.859 38.096C103.859 36.944 103.603 35.8773 103.091 34.896C102.579 33.9147 101.897 33.1253 101.043 32.528C100.211 31.9093 99.2728 31.6 98.2275 31.6H89.6835L89.6515 54H92.1795V44.56H95.7635L101.523 54ZM100.883 36.24C101.161 36.8373 101.299 37.456 101.299 38.096C101.299 38.672 101.15 39.2587 100.851 39.856C100.553 40.4533 100.158 40.9547 99.6675 41.36C99.1982 41.7653 98.6648 41.968 98.0675 41.968H92.1795V34.128H98.1315C98.7502 34.128 99.2942 34.3307 99.7635 34.736C100.233 35.12 100.606 35.6213 100.883 36.24ZM107.401 54H119.497V51.696H109.929V44.112H117.673V41.936H109.929V33.904H119.497V31.6H107.401V54ZM82.504 97.16C80.968 97.16 79.5387 96.872 78.216 96.296C76.8934 95.6987 75.7307 94.8773 74.728 93.832C73.7254 92.7867 72.936 91.5813 72.36 90.216C71.8054 88.8507 71.528 87.4 71.528 85.864C71.528 84.2853 71.816 82.8133 72.392 81.448C72.968 80.0613 73.7574 78.8453 74.76 77.8C75.784 76.7333 76.9574 75.9013 78.28 75.304C79.6027 74.7067 81.0107 74.408 82.504 74.408C84.04 74.408 85.4694 74.7173 86.792 75.336C88.1147 75.9333 89.2667 76.7653 90.248 77.832C91.2507 78.8773 92.0294 80.0933 92.584 81.48C93.16 82.8453 93.448 84.3067 93.448 85.864C93.448 87.4853 93.1494 88.9893 92.552 90.376C91.9547 91.7627 91.1334 92.968 90.088 93.992C90.4294 94.3333 90.8134 94.568 91.24 94.696C91.688 94.824 92.2747 94.8667 93 94.824V97.16C91.6347 97.2027 90.5894 97.128 89.864 96.936C89.16 96.7227 88.5307 96.296 87.976 95.656C87.1654 96.1467 86.3014 96.52 85.384 96.776C84.4667 97.032 83.5067 97.16 82.504 97.16ZM82.504 94.76C83.272 94.76 84.008 94.6533 84.712 94.44C85.416 94.2267 86.0774 93.9173 86.696 93.512C86.3334 92.808 86.024 92.2533 85.768 91.848C85.512 91.4213 85.1707 91.08 84.744 90.824C84.3174 90.568 83.688 90.3227 82.856 90.088V87.4C84.3707 87.6987 85.5654 88.1787 86.44 88.84C87.336 89.48 88.0934 90.4187 88.712 91.656C89.3734 90.888 89.8854 90.0133 90.248 89.032C90.632 88.0293 90.824 86.9733 90.824 85.864C90.824 84.648 90.6107 83.5067 90.184 82.44C89.7574 81.352 89.16 80.392 88.392 79.56C87.6454 78.7067 86.7707 78.0453 85.768 77.576C84.7654 77.0853 83.6774 76.84 82.504 76.84C81.3307 76.84 80.232 77.0853 79.208 77.576C78.2054 78.0453 77.32 78.7067 76.552 79.56C75.8054 80.392 75.2187 81.352 74.792 82.44C74.3654 83.528 74.152 84.6693 74.152 85.864C74.152 87.0373 74.3654 88.1573 74.792 89.224C75.2187 90.2907 75.8054 91.24 76.552 92.072C77.32 92.904 78.2054 93.5653 79.208 94.056C80.232 94.5253 81.3307 94.76 82.504 94.76ZM110.077 74.6H112.605V97H110.077V94.472C109.351 95.2827 108.487 95.9333 107.485 96.424C106.503 96.9147 105.437 97.16 104.285 97.16C102.749 97.16 101.351 96.808 100.093 96.104C98.8554 95.3787 97.8634 94.4187 97.1168 93.224C96.3701 92.008 95.9968 90.6533 95.9968 89.16V74.6H98.5248L98.5568 89.16C98.5568 90.1627 98.8128 91.08 99.3248 91.912C99.8368 92.7227 100.53 93.3733 101.405 93.864C102.279 94.3547 103.239 94.6 104.285 94.6C105.394 94.6 106.386 94.3653 107.261 93.896C108.135 93.4053 108.818 92.744 109.309 91.912C109.821 91.08 110.077 90.1627 110.077 89.16V74.6ZM118.345 97H115.817V74.6H118.345V97ZM133.632 97H121.536V74.6H133.632V76.904H124.064V84.936H131.808V87.112H124.064V94.696H133.632V97ZM152.696 76.936H145.72V97H143.16V76.936H136.184V74.6H152.696V76.936ZM135.485 139.456C136.829 140.011 138.205 140.288 139.613 140.288C140.957 140.288 142.183 140 143.293 139.424C144.423 138.827 145.319 138.027 145.981 137.024C146.663 136.021 147.005 134.891 147.005 133.632C147.005 132.224 146.738 131.115 146.205 130.304C145.671 129.493 144.882 128.843 143.837 128.352C142.813 127.861 141.543 127.413 140.029 127.008C139.133 126.752 138.322 126.475 137.597 126.176C136.871 125.877 136.295 125.493 135.869 125.024C135.442 124.533 135.229 123.893 135.229 123.104C135.25 122.336 135.485 121.728 135.933 121.28C136.381 120.811 136.957 120.48 137.661 120.288C138.386 120.075 139.143 119.968 139.933 119.968C140.743 119.989 141.543 120.107 142.333 120.32C143.122 120.512 143.89 120.768 144.637 121.088L146.333 119.04C145.33 118.464 144.253 118.059 143.101 117.824C141.97 117.568 140.893 117.44 139.869 117.44C137.757 117.44 136.05 117.909 134.749 118.848C133.469 119.765 132.754 121.088 132.605 122.816C132.498 124.117 132.743 125.205 133.341 126.08C133.938 126.955 134.802 127.68 135.933 128.256C137.063 128.811 138.386 129.28 139.901 129.664C141.458 130.048 142.61 130.549 143.357 131.168C144.103 131.787 144.466 132.608 144.445 133.632C144.423 134.443 144.189 135.157 143.741 135.776C143.293 136.373 142.695 136.843 141.949 137.184C141.223 137.525 140.423 137.696 139.549 137.696C138.674 137.696 137.746 137.515 136.765 137.152C135.783 136.768 134.898 136.256 134.109 135.616L132.157 137.408C133.053 138.219 134.162 138.901 135.485 139.456ZM149.915 117.6L149.883 140H152.411V130.56H158.363C159.152 130.56 159.888 130.379 160.571 130.016C161.275 129.632 161.883 129.131 162.395 128.512C162.928 127.872 163.344 127.179 163.643 126.432C163.963 125.664 164.123 124.885 164.123 124.096C164.123 122.965 163.878 121.909 163.387 120.928C162.896 119.925 162.224 119.125 161.371 118.528C160.518 117.909 159.547 117.6 158.459 117.6H149.915ZM158.299 128.096H152.411V120.096H158.395C158.992 120.096 159.536 120.277 160.027 120.64C160.518 121.003 160.902 121.493 161.179 122.112C161.478 122.709 161.627 123.371 161.627 124.096C161.627 124.736 161.467 125.365 161.147 125.984C160.848 126.603 160.443 127.115 159.931 127.52C159.44 127.904 158.896 128.096 158.299 128.096ZM170.645 117.6L163.157 140H165.845L167.733 134.304H176.789L178.677 140H181.397L173.877 117.6H170.645ZM168.437 132.16L172.277 120.672L176.085 132.16H168.437ZM204.258 140H216.354V137.696H206.786V130.112H214.53V127.936H206.786V119.904H216.354V117.6H204.258V140ZM222.235 139.456C223.579 140.011 224.955 140.288 226.363 140.288C227.707 140.288 228.933 140 230.043 139.424C231.173 138.827 232.069 138.027 232.731 137.024C233.413 136.021 233.755 134.891 233.755 133.632C233.755 132.224 233.488 131.115 232.955 130.304C232.421 129.493 231.632 128.843 230.587 128.352C229.563 127.861 228.293 127.413 226.779 127.008C225.883 126.752 225.072 126.475 224.347 126.176C223.621 125.877 223.045 125.493 222.619 125.024C222.192 124.533 221.979 123.893 221.979 123.104C222 122.336 222.235 121.728 222.683 121.28C223.131 120.811 223.707 120.48 224.411 120.288C225.136 120.075 225.893 119.968 226.683 119.968C227.493 119.989 228.293 120.107 229.083 120.32C229.872 120.512 230.64 120.768 231.387 121.088L233.083 119.04C232.08 118.464 231.003 118.059 229.851 117.824C228.72 117.568 227.643 117.44 226.619 117.44C224.507 117.44 222.8 117.909 221.499 118.848C220.219 119.765 219.504 121.088 219.355 122.816C219.248 124.117 219.493 125.205 220.091 126.08C220.688 126.955 221.552 127.68 222.683 128.256C223.813 128.811 225.136 129.28 226.651 129.664C228.208 130.048 229.36 130.549 230.107 131.168C230.853 131.787 231.216 132.608 231.195 133.632C231.173 134.443 230.939 135.157 230.491 135.776C230.043 136.373 229.445 136.843 228.699 137.184C227.973 137.525 227.173 137.696 226.299 137.696C225.424 137.696 224.496 137.515 223.515 137.152C222.533 136.768 221.648 136.256 220.859 135.616L218.907 137.408C219.803 138.219 220.912 138.901 222.235 139.456Z" fill="#0F1210"/>
</svg>
