<svg width="12" height="13" viewBox="0 0 12 13" fill="none" xmlns="http://www.w3.org/2000/svg">
<g id="Icon">
<path id="Vector" d="M6 11.5C5.31667 11.5 4.67083 11.3688 4.0625 11.1063C3.45417 10.8438 2.92292 10.4854 2.46875 10.0313C2.01458 9.57708 1.65625 9.04583 1.39375 8.4375C1.13125 7.82917 1 7.18333 1 6.5C1 5.80833 1.13125 5.16042 1.39375 4.55625C1.65625 3.95208 2.01458 3.42292 2.46875 2.96875C2.92292 2.51458 3.45417 2.15625 4.0625 1.89375C4.67083 1.63125 5.31667 1.5 6 1.5C6.69167 1.5 7.33958 1.63125 7.94375 1.89375C8.54792 2.15625 9.07708 2.51458 9.53125 2.96875C9.98542 3.42292 10.3438 3.95208 10.6063 4.55625C10.8688 5.16042 11 5.80833 11 6.5C11 7.18333 10.8688 7.82917 10.6063 8.4375C10.3438 9.04583 9.98542 9.57708 9.53125 10.0313C9.07708 10.4854 8.54792 10.8438 7.94375 11.1063C7.33958 11.3688 6.69167 11.5 6 11.5ZM6 10.475C6.21667 10.175 6.40417 9.8625 6.5625 9.5375C6.72083 9.2125 6.85 8.86667 6.95 8.5H5.05C5.15 8.86667 5.27917 9.2125 5.4375 9.5375C5.59583 9.8625 5.78333 10.175 6 10.475ZM4.7 10.275C4.55 10 4.41875 9.71458 4.30625 9.41875C4.19375 9.12292 4.1 8.81667 4.025 8.5H2.55C2.79167 8.91667 3.09375 9.27917 3.45625 9.5875C3.81875 9.89583 4.23333 10.125 4.7 10.275ZM7.3 10.275C7.76667 10.125 8.18125 9.89583 8.54375 9.5875C8.90625 9.27917 9.20833 8.91667 9.45 8.5H7.975C7.9 8.81667 7.80625 9.12292 7.69375 9.41875C7.58125 9.71458 7.45 10 7.3 10.275ZM2.125 7.5H3.825C3.8 7.33333 3.78125 7.16875 3.76875 7.00625C3.75625 6.84375 3.75 6.675 3.75 6.5C3.75 6.325 3.75625 6.15625 3.76875 5.99375C3.78125 5.83125 3.8 5.66667 3.825 5.5H2.125C2.08333 5.66667 2.05208 5.83125 2.03125 5.99375C2.01042 6.15625 2 6.325 2 6.5C2 6.675 2.01042 6.84375 2.03125 7.00625C2.05208 7.16875 2.08333 7.33333 2.125 7.5ZM4.825 7.5H7.175C7.2 7.33333 7.21875 7.16875 7.23125 7.00625C7.24375 6.84375 7.25 6.675 7.25 6.5C7.25 6.325 7.24375 6.15625 7.23125 5.99375C7.21875 5.83125 7.2 5.66667 7.175 5.5H4.825C4.8 5.66667 4.78125 5.83125 4.76875 5.99375C4.75625 6.15625 4.75 6.325 4.75 6.5C4.75 6.675 4.75625 6.84375 4.76875 7.00625C4.78125 7.16875 4.8 7.33333 4.825 7.5ZM8.175 7.5H9.875C9.91667 7.33333 9.94792 7.16875 9.96875 7.00625C9.98958 6.84375 10 6.675 10 6.5C10 6.325 9.98958 6.15625 9.96875 5.99375C9.94792 5.83125 9.91667 5.66667 9.875 5.5H8.175C8.2 5.66667 8.21875 5.83125 8.23125 5.99375C8.24375 6.15625 8.25 6.325 8.25 6.5C8.25 6.675 8.24375 6.84375 8.23125 7.00625C8.21875 7.16875 8.2 7.33333 8.175 7.5ZM7.975 4.5H9.45C9.20833 4.08333 8.90625 3.72083 8.54375 3.4125C8.18125 3.10417 7.76667 2.875 7.3 2.725C7.45 3 7.58125 3.28542 7.69375 3.58125C7.80625 3.87708 7.9 4.18333 7.975 4.5ZM5.05 4.5H6.95C6.85 4.13333 6.72083 3.7875 6.5625 3.4625C6.40417 3.1375 6.21667 2.825 6 2.525C5.78333 2.825 5.59583 3.1375 5.4375 3.4625C5.27917 3.7875 5.15 4.13333 5.05 4.5ZM2.55 4.5H4.025C4.1 4.18333 4.19375 3.87708 4.30625 3.58125C4.41875 3.28542 4.55 3 4.7 2.725C4.23333 2.875 3.81875 3.10417 3.45625 3.4125C3.09375 3.72083 2.79167 4.08333 2.55 4.5Z" fill="#0F1210"/>
</g>
</svg>
