<svg width="80" height="71" viewBox="0 0 80 71" fill="none" xmlns="http://www.w3.org/2000/svg">
<g id="Logo">
<path id="Vector" fill-rule="evenodd" clip-rule="evenodd" d="M57.7929 18.3378C57.7929 -6.11261 22.2217 -6.11261 22.2217 18.3378V39.6722C22.2217 41.3951 23.6177 42.7882 25.3396 42.7882H54.675C56.3968 42.7882 57.7929 41.3951 57.7929 39.6722V18.3378ZM33.1484 39.1234C33.1484 39.5542 32.7994 39.9033 32.3689 39.9033H31.1407C30.7102 39.9033 30.3612 39.5542 30.3612 39.1234V37.8609C30.3612 37.4301 30.012 37.081 29.5817 37.081H28.3533C27.9228 37.081 27.5739 37.4301 27.5739 37.8609V39.1234C27.5739 39.5542 27.2249 39.9033 26.7944 39.9033H25.5661C25.1356 39.9033 24.7866 39.5542 24.7866 39.1234V23.7493C24.7866 23.3186 25.1356 22.9694 25.5661 22.9694H26.7944C27.2249 22.9694 27.5739 23.3186 27.5739 23.7493V25.0119C27.5739 25.4426 27.9228 25.7917 28.3533 25.7917H29.5817C30.012 25.7917 30.3612 25.4426 30.3612 25.0119V20.927C30.3612 20.4963 30.7102 20.1471 31.1407 20.1471H32.3689C32.7994 20.1471 33.1484 20.4963 33.1484 20.927V39.1234ZM27.5739 33.4789C27.5739 33.9096 27.9228 34.2587 28.3533 34.2587H29.5817C30.012 34.2587 30.3612 33.9096 30.3612 33.4789V29.3938C30.3612 28.9633 30.012 28.6139 29.5817 28.6139H28.3533C27.9228 28.6139 27.5739 28.9633 27.5739 29.3938V33.4789ZM52.659 23.7493C52.659 23.3186 53.0079 22.9694 53.4384 22.9694H54.6666C55.0972 22.9694 55.4461 23.3186 55.4461 23.7493V39.1234C55.4461 39.5542 55.0972 39.9033 54.6666 39.9033H53.4384C53.0079 39.9033 52.659 39.5542 52.659 39.1234V37.8609C52.659 37.4301 52.31 37.081 51.8795 37.081H50.651C50.2208 37.081 49.8716 37.4301 49.8716 37.8609V39.1234C49.8716 39.5542 49.5226 39.9033 49.0921 39.9033H47.8639C47.4333 39.9033 47.0844 39.5542 47.0844 39.1234V20.927C47.0844 20.4963 47.4333 20.1471 47.8639 20.1471H49.0921C49.5226 20.1471 49.8716 20.4963 49.8716 20.927V25.0119C49.8716 25.4426 50.2208 25.7917 50.651 25.7917H51.8795C52.31 25.7917 52.659 25.4426 52.659 25.0119V23.7493ZM51.8795 34.2587C52.31 34.2587 52.659 33.9096 52.659 33.4789V29.3938C52.659 28.9633 52.31 28.6139 51.8795 28.6139H50.651C50.2208 28.6139 49.8716 28.9633 49.8716 29.3938V33.4789C49.8716 33.9096 50.2208 34.2587 50.651 34.2587H51.8795ZM21.8534 56.813L24.6221 48.0912H26.2933L29.0745 56.813H27.6652L26.9918 54.6669H23.9362L23.2627 56.813H21.8534ZM25.4702 49.7382L24.2854 53.5314H26.6425L25.4702 49.7382ZM25.4827 47.4299C25.1917 47.4299 24.9381 47.3217 24.7219 47.1054C24.5057 46.8892 24.3977 46.6355 24.3977 46.3443C24.3977 46.0532 24.5057 45.7995 24.7219 45.5832C24.9381 45.3669 25.1917 45.2588 25.4827 45.2588C25.7737 45.2588 26.0231 45.3669 26.231 45.5832C26.4472 45.7995 26.5552 46.0532 26.5552 46.3443C26.5552 46.6355 26.4472 46.8892 26.231 47.1054C26.0231 47.3217 25.7737 47.4299 25.4827 47.4299ZM25.4827 45.8826C25.3497 45.8826 25.2374 45.9242 25.146 46.0074C25.0545 46.0906 25.0088 46.1946 25.0088 46.3194C25.0088 46.4691 25.0545 46.5897 25.146 46.6812C25.2374 46.7644 25.3497 46.806 25.4827 46.806C25.5991 46.806 25.703 46.7644 25.7945 46.6812C25.8943 46.5897 25.9441 46.4691 25.9441 46.3194C25.9441 46.1946 25.8943 46.0906 25.7945 46.0074C25.703 45.9242 25.5991 45.8826 25.4827 45.8826ZM36.1608 56.8255H34.5769L32.4941 53.3318H31.5213V56.8255H30.1993L30.2118 48.0912H33.5043C33.9367 48.0912 34.3191 48.216 34.6517 48.4655C34.9926 48.7067 35.2587 49.027 35.4499 49.4263C35.6494 49.8256 35.7492 50.254 35.7492 50.7115C35.7492 51.0692 35.6744 51.4227 35.5247 51.7721C35.3751 52.1131 35.1672 52.4126 34.9011 52.6704C34.6434 52.9283 34.3482 53.1113 34.0157 53.2195L36.1608 56.8255ZM34.4023 50.7115C34.4023 50.5118 34.3607 50.3122 34.2776 50.1125C34.1944 49.9129 34.078 49.7465 33.9284 49.6134C33.787 49.4803 33.6207 49.4138 33.4295 49.4138H31.5213V51.9343H33.417C33.6083 51.9343 33.7745 51.8719 33.9159 51.7471C34.0655 51.6223 34.182 51.4643 34.2651 51.273C34.3566 51.0816 34.4023 50.8945 34.4023 50.7115ZM43.5235 56.8255H42.2015V53.182H38.6096V56.8255H37.2877V48.0912H38.6096V51.9842H42.2015V48.0912H43.5235V56.8255ZM49.8541 56.8255V56.0144C49.5964 56.2723 49.3012 56.4844 48.9687 56.6508C48.6444 56.8088 48.291 56.8879 47.9086 56.8879C47.285 56.8879 46.7279 56.7465 46.2374 56.4636C45.7468 56.1725 45.356 55.7898 45.065 55.3157C44.7823 54.8332 44.641 54.2967 44.641 53.7061V48.0912H45.963L45.9755 53.7061C45.9755 54.0471 46.0586 54.3549 46.2249 54.6294C46.3995 54.9039 46.6323 55.1202 46.9233 55.2783C47.2226 55.4363 47.551 55.5153 47.9086 55.5153C48.2827 55.5153 48.6153 55.4363 48.9063 55.2783C49.1973 55.1202 49.426 54.9039 49.5922 54.6294C49.7668 54.3549 49.8541 54.0471 49.8541 53.7061V48.0912H51.1761V53.5189V53.6562V56.8255H49.8541ZM55.2949 56.9503C54.9208 56.9503 54.5466 56.8962 54.1725 56.788C53.8066 56.6716 53.4616 56.5177 53.1373 56.3264C52.813 56.1351 52.5345 55.9188 52.3017 55.6775L53.2994 54.7292C53.5655 54.9871 53.8773 55.1951 54.2348 55.3531C54.6007 55.5029 54.9457 55.5777 55.27 55.5777C55.7023 55.5777 56.0681 55.4529 56.3675 55.2034C56.6751 54.9538 56.8289 54.6461 56.8289 54.28C56.8372 53.9723 56.7291 53.7186 56.5047 53.5189C56.2802 53.311 55.9725 53.1529 55.5818 53.0448C54.8917 52.8618 54.2972 52.658 53.7983 52.4334C53.3078 52.2088 52.9378 51.9218 52.6883 51.5724C52.4472 51.2147 52.3558 50.7447 52.414 50.1624C52.4971 49.4554 52.7964 48.923 53.3119 48.5653C53.8357 48.1993 54.4801 48.0163 55.245 48.0163C55.6691 48.0163 56.1139 48.0787 56.5795 48.2035C57.0534 48.3282 57.5149 48.532 57.9638 48.8149L57.0285 49.8131C56.7707 49.6883 56.4963 49.5802 56.2053 49.4887C55.9143 49.3972 55.6192 49.3514 55.3199 49.3514C55.0621 49.3431 54.8127 49.3722 54.5715 49.4388C54.3387 49.497 54.1475 49.601 53.9979 49.7507C53.8482 49.8921 53.7692 50.0834 53.7609 50.3247C53.7526 50.5908 53.8191 50.7988 53.9604 50.9485C54.1018 51.0983 54.2972 51.223 54.5466 51.3229C54.8044 51.4144 55.0995 51.51 55.4321 51.6098C56.0141 51.7679 56.5088 51.9467 56.9162 52.1464C57.3236 52.346 57.6313 52.6122 57.8391 52.945C58.0553 53.2777 58.1634 53.7227 58.1634 54.28C58.1634 54.7792 58.0345 55.2325 57.7768 55.6401C57.519 56.0394 57.1698 56.3596 56.7291 56.6009C56.2968 56.8338 55.8187 56.9503 55.2949 56.9503ZM4.78834 70.6506C5.30383 70.8835 5.8609 71 6.45954 71C7.08312 71 7.67761 70.8627 8.24299 70.5882C8.80837 70.3137 9.32802 69.8895 9.80194 69.3155L8.74185 68.4421C8.39265 68.8497 8.02681 69.1492 7.64435 69.3405C7.2702 69.5318 6.87526 69.6275 6.45954 69.6275C6.06045 69.6275 5.6863 69.5484 5.33709 69.3904C4.98789 69.2323 4.68025 69.0078 4.41419 68.7166C4.14813 68.4338 3.94027 68.1094 3.79061 67.7433C3.64095 67.3773 3.56612 66.9656 3.56612 66.5081C3.56612 66.0506 3.64095 65.6346 3.79061 65.2603C3.94027 64.8777 4.14813 64.5491 4.41419 64.2746C4.68857 64.0001 4.9962 63.7838 5.33709 63.6258C5.6863 63.4594 6.06045 63.3762 6.45954 63.3762C6.87526 63.3762 7.2702 63.4719 7.64435 63.6632C8.02681 63.8545 8.39265 64.154 8.74185 64.5616L9.80194 63.6757C9.32802 63.11 8.80837 62.6899 8.24299 62.4154C7.67761 62.1409 7.08312 62.0037 6.45954 62.0037C5.8609 62.0037 5.30383 62.1201 4.78834 62.353C4.27284 62.586 3.82386 62.9021 3.4414 63.3013C3.05062 63.7089 2.74299 64.1872 2.5185 64.7363C2.29401 65.277 2.18176 65.8676 2.18176 66.5081C2.18176 67.1652 2.29401 67.7641 2.5185 68.3048C2.74299 68.8372 3.05062 69.303 3.4414 69.7023C3.83218 70.0933 4.28116 70.4094 4.78834 70.6506ZM19.0111 68.2425C19.2356 67.6934 19.3478 67.107 19.3478 66.4831C19.3478 65.8759 19.2356 65.3019 19.0111 64.7612C18.7949 64.2205 18.4914 63.7464 18.1007 63.3388C17.7099 62.9229 17.2567 62.5984 16.7413 62.3655C16.2258 62.1326 15.6728 62.0161 15.0825 62.0161C14.5088 62.0161 13.9642 62.1326 13.4487 62.3655C12.9332 62.5984 12.4759 62.9229 12.0769 63.3388C11.6778 63.7464 11.366 64.2205 11.1415 64.7612C10.917 65.2936 10.8047 65.8676 10.8047 66.4831C10.8047 67.0987 10.9128 67.6768 11.129 68.2175C11.3535 68.7582 11.6611 69.2365 12.0519 69.6524C12.4427 70.06 12.8958 70.3844 13.4113 70.6257C13.9268 70.8586 14.4839 70.975 15.0825 70.975C15.6728 70.975 16.2258 70.8586 16.7413 70.6257C17.2567 70.3928 17.7099 70.0725 18.1007 69.6649C18.4914 69.2573 18.7949 68.7831 19.0111 68.2425ZM17.5769 64.8985C17.8429 65.3726 17.9759 65.9008 17.9759 66.4831C17.9759 67.0571 17.8471 67.5895 17.5893 68.0803C17.3316 68.5627 16.9824 68.9495 16.5417 69.2407C16.1094 69.5318 15.623 69.6774 15.0825 69.6774C14.5504 69.6774 14.064 69.5318 13.6233 69.2407C13.1827 68.9495 12.8293 68.5627 12.5632 68.0803C12.3055 67.5978 12.1766 67.0654 12.1766 66.4831C12.1766 65.9091 12.3055 65.3809 12.5632 64.8985C12.8293 64.416 13.1785 64.0292 13.6109 63.7381C14.0515 63.4469 14.5421 63.3013 15.0825 63.3013C15.6146 63.3013 16.0969 63.4469 16.5292 63.7381C16.9699 64.0292 17.3191 64.416 17.5769 64.8985ZM25.5543 70.0517V70.8627H26.8763V67.6934V67.5562V62.1284H25.5543V67.7433C25.5543 68.0844 25.467 68.3922 25.2924 68.6667C25.1261 68.9412 24.8975 69.1575 24.6065 69.3155C24.3155 69.4736 23.9829 69.5526 23.6087 69.5526C23.2512 69.5526 22.9228 69.4736 22.6235 69.3155C22.3325 69.1575 22.0997 68.9412 21.9251 68.6667C21.7588 68.3922 21.6756 68.0844 21.6756 67.7433L21.6632 62.1284H20.3412V67.7433C20.3412 68.334 20.4825 68.8705 20.7652 69.353C21.0562 69.8271 21.447 70.2098 21.9375 70.5009C22.4281 70.7837 22.9852 70.9251 23.6087 70.9251C23.9912 70.9251 24.3446 70.8461 24.6688 70.6881C25.0014 70.5217 25.2966 70.3096 25.5543 70.0517ZM32.5043 70.8627H34.0882L31.943 67.2567C32.2756 67.1486 32.5708 66.9656 32.8285 66.7077C33.0946 66.4498 33.3024 66.1504 33.4521 65.8093C33.6018 65.46 33.6766 65.1064 33.6766 64.7487C33.6766 64.2912 33.5768 63.8628 33.3773 63.4635C33.186 63.0643 32.92 62.744 32.5791 62.5028C32.2465 62.2532 31.864 62.1284 31.4317 62.1284H28.1392L28.1267 70.8627H29.4487V67.369H30.4215L32.5043 70.8627ZM32.2049 64.1498C32.2881 64.3494 32.3297 64.5491 32.3297 64.7487C32.3297 64.9317 32.2839 65.1189 32.1925 65.3102C32.1093 65.5015 31.9929 65.6596 31.8433 65.7844C31.7019 65.9091 31.5356 65.9715 31.3444 65.9715H29.4487V63.4511H31.3569C31.5481 63.4511 31.7144 63.5176 31.8557 63.6507C32.0054 63.7838 32.1218 63.9502 32.2049 64.1498ZM38.567 63.3512H41.1237V62.1284H34.6884V63.3512H37.245V70.8627H38.567V63.3512ZM46.2958 67.8931L49.1144 62.1284H47.78L45.6224 66.533L43.4523 62.1284H42.1178L44.9489 67.8931V70.8627H46.2958V67.8931ZM51.2808 62.1284L48.5119 70.8503H49.9212L50.5949 68.7041H53.6505L54.3237 70.8503H55.7332L52.9518 62.1284H51.2808ZM50.9441 67.5687L52.1287 63.7755L53.3013 67.5687H50.9441ZM61.2353 70.8627H62.8192L60.6741 67.2567C61.0067 67.1486 61.3018 66.9656 61.5596 66.7077C61.8256 66.4498 62.0335 66.1504 62.1832 65.8093C62.3328 65.46 62.4076 65.1064 62.4076 64.7487C62.4076 64.2912 62.3079 63.8628 62.1083 63.4635C61.9171 63.0643 61.651 62.744 61.3101 62.5028C60.9776 62.2532 60.5951 62.1284 60.1627 62.1284H56.8702L56.8578 70.8627H58.1798V67.369H59.1525L61.2353 70.8627ZM60.936 64.1498C61.0191 64.3494 61.0607 64.5491 61.0607 64.7487C61.0607 64.9317 61.015 65.1189 60.9235 65.3102C60.8404 65.5015 60.724 65.6596 60.5743 65.7844C60.433 65.9091 60.2667 65.9715 60.0754 65.9715H58.1798V63.4511H60.0879C60.2792 63.4511 60.4454 63.5176 60.5868 63.6507C60.7364 63.7838 60.8528 63.9502 60.936 64.1498ZM70.4563 68.1676C70.6725 67.6352 70.7805 67.0696 70.7805 66.4706C70.7805 65.88 70.6725 65.3227 70.4563 64.7986C70.2401 64.2663 69.9408 63.8004 69.5583 63.4012C69.1759 62.9936 68.7269 62.6733 68.2114 62.4404C67.7042 62.2075 67.1513 62.091 66.5527 62.091H63.9461V70.8627H66.5527C67.143 70.8627 67.6917 70.7505 68.1989 70.5259C68.7144 70.2929 69.1634 69.9768 69.5458 69.5776C69.9366 69.17 70.2401 68.7 70.4563 68.1676ZM69.022 64.9359C69.2798 65.3934 69.4087 65.905 69.4087 66.4706C69.4087 67.028 69.2839 67.5396 69.0345 68.0054C68.7851 68.4629 68.4442 68.8289 68.0118 69.1034C67.5795 69.3779 67.0931 69.5152 66.5527 69.5152H65.2805V63.4386H66.5527C67.0931 63.4386 67.5753 63.5758 67.9994 63.8504C68.4317 64.1165 68.7726 64.4784 69.022 64.9359ZM73.6454 70.8253C74.0195 70.9335 74.3937 70.9875 74.7678 70.9875C75.2916 70.9875 75.7697 70.8711 76.2021 70.6382C76.6427 70.3969 76.9919 70.0767 77.2497 69.6774C77.5074 69.2698 77.6363 68.8164 77.6363 68.3173C77.6363 67.76 77.5282 67.315 77.3121 66.9822C77.1042 66.6495 76.7966 66.3833 76.3892 66.1837C75.9817 65.984 75.487 65.8052 74.905 65.6471C74.5724 65.5473 74.2773 65.4516 74.0195 65.3601C73.7701 65.2603 73.5747 65.1355 73.4334 64.9858C73.292 64.8361 73.2255 64.6281 73.2338 64.3619C73.2421 64.1207 73.3211 63.9294 73.4708 63.788C73.6204 63.6382 73.8117 63.5343 74.0445 63.476C74.2856 63.4095 74.535 63.3804 74.7928 63.3887C75.0921 63.3887 75.3873 63.4344 75.6783 63.5259C75.9693 63.6174 76.2437 63.7256 76.5014 63.8504L77.4368 62.8521C76.9878 62.5693 76.5263 62.3655 76.0524 62.2407C75.5868 62.116 75.142 62.0536 74.7179 62.0536C73.953 62.0536 73.3087 62.2366 72.7848 62.6026C72.2693 62.9603 71.97 63.4927 71.8869 64.1997C71.8287 64.782 71.9201 65.252 72.1613 65.6097C72.4107 65.9591 72.7807 66.246 73.2712 66.4706C73.7701 66.6952 74.3646 66.899 75.0547 67.082C75.4455 67.1902 75.7531 67.3482 75.9776 67.5562C76.2021 67.7558 76.3102 68.0095 76.3018 68.3173C76.3018 68.6833 76.148 68.9911 75.8404 69.2407C75.5411 69.4902 75.1752 69.615 74.7429 69.615C74.4186 69.615 74.0736 69.5401 73.7077 69.3904C73.3502 69.2323 73.0384 69.0244 72.7724 68.7665L71.7746 69.7148C72.0074 69.956 72.286 70.1723 72.6102 70.3636C72.9345 70.555 73.2796 70.7089 73.6454 70.8253Z" fill="#0F1210"/>
</g>
</svg>
