<svg width="74" height="27" viewBox="0 0 74 27" fill="none" xmlns="http://www.w3.org/2000/svg">
<g clip-path="url(#clip0_182_910)">
<path fill-rule="evenodd" clip-rule="evenodd" d="M23.0246 11.4951C23.0246 -3.80355 0 -3.80355 0 11.4951V24.844C0 25.9221 0.90357 26.7937 2.01818 26.7937H21.0064C22.1211 26.7937 23.0246 25.9221 23.0246 24.844V11.4951ZM7.07263 24.5007C7.07263 24.7702 6.84675 24.9886 6.56809 24.9886H5.77304C5.4944 24.9886 5.26851 24.7702 5.26851 24.5007V23.7107C5.26851 23.4412 5.04261 23.2227 4.76395 23.2227H3.96892C3.69026 23.2227 3.46438 23.4412 3.46438 23.7107V24.5007C3.46438 24.7702 3.23848 24.9886 2.95983 24.9886H2.16479C1.88613 24.9886 1.66024 24.7702 1.66024 24.5007V14.8811C1.66024 14.6116 1.88614 14.3931 2.16479 14.3931H2.95983C3.23848 14.3931 3.46438 14.6116 3.46438 14.8811V15.6711C3.46438 15.9406 3.69026 16.159 3.96892 16.159H4.76397C5.04261 16.159 5.26851 15.9406 5.26851 15.6711V13.1152C5.26851 12.8457 5.4944 12.6272 5.77306 12.6272H6.56809C6.84675 12.6272 7.07263 12.8457 7.07263 13.1152V24.5007ZM3.46438 20.9689C3.46438 21.2384 3.69026 21.4568 3.96892 21.4568H4.76397C5.04261 21.4568 5.26851 21.2384 5.26851 20.9689V18.413C5.26851 18.1435 5.04261 17.925 4.76395 17.925H3.96892C3.69026 17.925 3.46438 18.1435 3.46438 18.413V20.9689ZM19.7015 14.8811C19.7015 14.6116 19.9275 14.3931 20.206 14.3931H21.0012C21.2799 14.3931 21.5057 14.6116 21.5057 14.8811V24.5007C21.5057 24.7702 21.2799 24.9886 21.0012 24.9886H20.206C19.9275 24.9886 19.7015 24.7702 19.7015 24.5007V23.7107C19.7015 23.4412 19.4756 23.2227 19.1969 23.2227H18.402C18.1233 23.2227 17.8974 23.4412 17.8974 23.7107V24.5007C17.8974 24.7702 17.6715 24.9886 17.3929 24.9886H16.5978C16.3192 24.9886 16.0933 24.7702 16.0933 24.5007V13.1152C16.0933 12.8457 16.3192 12.6272 16.5978 12.6272H17.3929C17.6715 12.6272 17.8974 12.8457 17.8974 13.1152V15.6711C17.8974 15.9406 18.1233 16.159 18.402 16.159H19.1969C19.4756 16.159 19.7015 15.9406 19.7015 15.6711V14.8811ZM19.1969 21.4568C19.4756 21.4568 19.7015 21.2384 19.7015 20.9689V18.413C19.7015 18.1435 19.4756 17.925 19.1969 17.925H18.402C18.1233 17.925 17.8974 18.1435 17.8974 18.413V20.9689C17.8974 21.2384 18.1233 21.4568 18.402 21.4568H19.1969ZM25.0648 18.3281L26.857 12.8709H27.9387L29.7389 18.3281H28.8267L28.3908 16.9852H26.413L25.977 18.3281H25.0648ZM27.4059 13.9014L26.639 16.2748H28.1647L27.4059 13.9014ZM27.414 12.4571C27.2256 12.4571 27.0615 12.3894 26.9215 12.2541C26.7816 12.1188 26.7116 11.96 26.7116 11.7778C26.7116 11.5957 26.7816 11.4369 26.9215 11.3016C27.0615 11.1663 27.2256 11.0986 27.414 11.0986C27.6023 11.0986 27.7638 11.1663 27.8983 11.3016C28.0383 11.4369 28.1082 11.5957 28.1082 11.7778C28.1082 11.96 28.0383 12.1188 27.8983 12.2541C27.7638 12.3894 27.6023 12.4571 27.414 12.4571ZM27.414 11.489C27.3279 11.489 27.2552 11.515 27.196 11.5671C27.1368 11.6191 27.1072 11.6842 27.1072 11.7622C27.1072 11.8559 27.1368 11.9314 27.196 11.9886C27.2552 12.0407 27.3279 12.0667 27.414 12.0667C27.4893 12.0667 27.5566 12.0407 27.6158 11.9886C27.6804 11.9314 27.7127 11.8559 27.7127 11.7622C27.7127 11.6842 27.6804 11.6191 27.6158 11.5671C27.5566 11.515 27.4893 11.489 27.414 11.489ZM34.3257 18.3359H33.3005L31.9524 16.1499H31.3227V18.3359H30.467L30.4751 12.8709H32.6063C32.8861 12.8709 33.1337 12.9489 33.3489 13.1051C33.5696 13.256 33.7418 13.4564 33.8656 13.7062C33.9948 13.9561 34.0593 14.2241 34.0593 14.5104C34.0593 14.7342 34.0109 14.9554 33.914 15.174C33.8172 15.3874 33.6826 15.5748 33.5104 15.7361C33.3436 15.8975 33.1525 16.012 32.9372 16.0796L34.3257 18.3359ZM33.1875 14.5104C33.1875 14.3855 33.1606 14.2605 33.1068 14.1356C33.0529 14.0107 32.9776 13.9066 32.8807 13.8233C32.7892 13.7401 32.6816 13.6984 32.5578 13.6984H31.3227V15.2755H32.5497C32.6735 15.2755 32.7812 15.2364 32.8727 15.1584C32.9695 15.0803 33.0449 14.9814 33.0987 14.8617C33.1579 14.742 33.1875 14.6249 33.1875 14.5104ZM39.0915 18.3359H38.2358V16.0562H35.9109V18.3359H35.0551V12.8709H35.9109V15.3067H38.2358V12.8709H39.0915V18.3359ZM43.1893 18.3359V17.8284C43.0224 17.9898 42.8314 18.1225 42.6161 18.2266C42.4062 18.3255 42.1775 18.3749 41.9299 18.3749C41.5263 18.3749 41.1657 18.2864 40.8482 18.1095C40.5306 17.9273 40.2777 17.6879 40.0893 17.3912C39.9064 17.0893 39.8149 16.7536 39.8149 16.3841V12.8709H40.6706L40.6786 16.3841C40.6786 16.5975 40.7325 16.7901 40.8401 16.9618C40.9531 17.1336 41.1038 17.2689 41.2922 17.3678C41.4859 17.4667 41.6985 17.5161 41.9299 17.5161C42.1721 17.5161 42.3874 17.4667 42.5757 17.3678C42.7641 17.2689 42.9121 17.1336 43.0197 16.9618C43.1328 16.7901 43.1893 16.5975 43.1893 16.3841V12.8709H44.045V16.267V16.3528V18.3359H43.1893ZM46.7112 18.414C46.469 18.414 46.2268 18.3801 45.9846 18.3125C45.7478 18.2396 45.5245 18.1433 45.3146 18.0236C45.1047 17.9039 44.9244 17.7686 44.7737 17.6176L45.4195 17.0243C45.5917 17.1856 45.7936 17.3157 46.025 17.4146C46.2618 17.5083 46.4851 17.5552 46.695 17.5552C46.9749 17.5552 47.2117 17.4771 47.4054 17.3209C47.6045 17.1648 47.7041 16.9722 47.7041 16.7432C47.7095 16.5506 47.6395 16.3919 47.4942 16.267C47.3489 16.1369 47.1498 16.038 46.8968 15.9703C46.4501 15.8558 46.0653 15.7283 45.7424 15.5878C45.4249 15.4472 45.1854 15.2677 45.024 15.0491C44.8679 14.8253 44.8087 14.5312 44.8464 14.1669C44.9002 13.7244 45.0939 13.3913 45.4276 13.1675C45.7666 12.9385 46.1837 12.824 46.6789 12.824C46.9533 12.824 47.2413 12.8631 47.5426 12.9411C47.8494 13.0192 48.1481 13.1467 48.4387 13.3237L47.8333 13.9483C47.6664 13.8702 47.4888 13.8025 47.3005 13.7453C47.1121 13.688 46.921 13.6594 46.7273 13.6594C46.5605 13.6542 46.399 13.6724 46.2429 13.714C46.0922 13.7505 45.9685 13.8155 45.8716 13.9092C45.7747 13.9977 45.7236 14.1174 45.7182 14.2684C45.7128 14.4349 45.7559 14.565 45.8474 14.6587C45.9389 14.7524 46.0653 14.8305 46.2268 14.8929C46.3936 14.9502 46.5847 15.01 46.8 15.0725C47.1767 15.1714 47.4969 15.2833 47.7606 15.4082C48.0243 15.5331 48.2234 15.6997 48.358 15.9079C48.4979 16.1161 48.5679 16.3945 48.5679 16.7432C48.5679 17.0555 48.4845 17.3392 48.3176 17.5942C48.1508 17.844 47.9248 18.0444 47.6395 18.1954C47.3597 18.3411 47.0502 18.414 46.7112 18.414ZM26.7165 26.661C27.0502 26.8067 27.4108 26.8796 27.7983 26.8796C28.2019 26.8796 28.5867 26.7937 28.9527 26.622C29.3186 26.4502 29.655 26.1848 29.9618 25.8256L29.2756 25.2791C29.0495 25.5342 28.8127 25.7215 28.5652 25.8412C28.323 25.9609 28.0674 26.0208 27.7983 26.0208C27.5399 26.0208 27.2978 25.9714 27.0717 25.8725C26.8457 25.7736 26.6466 25.633 26.4743 25.4509C26.3021 25.2739 26.1676 25.0709 26.0707 24.8419C25.9738 24.6129 25.9254 24.3553 25.9254 24.069C25.9254 23.7827 25.9738 23.5225 26.0707 23.2883C26.1676 23.0488 26.3021 22.8433 26.4743 22.6715C26.6519 22.4997 26.8511 22.3644 27.0717 22.2655C27.2978 22.1614 27.5399 22.1094 27.7983 22.1094C28.0674 22.1094 28.323 22.1692 28.5652 22.2889C28.8127 22.4087 29.0495 22.596 29.2756 22.8511L29.9618 22.2968C29.655 21.9428 29.3186 21.68 28.9527 21.5082C28.5867 21.3365 28.2019 21.2506 27.7983 21.2506C27.4108 21.2506 27.0502 21.3235 26.7165 21.4692C26.3828 21.6149 26.0922 21.8127 25.8447 22.0625C25.5917 22.3176 25.3926 22.6168 25.2473 22.9604C25.102 23.2987 25.0293 23.6682 25.0293 24.069C25.0293 24.4802 25.102 24.8549 25.2473 25.1932C25.3926 25.5263 25.5917 25.8178 25.8447 26.0676C26.0976 26.3123 26.3882 26.5101 26.7165 26.661ZM35.9228 25.1542C36.0681 24.8107 36.1408 24.4437 36.1408 24.0534C36.1408 23.6734 36.0681 23.3143 35.9228 22.976C35.7829 22.6377 35.5864 22.341 35.3335 22.086C35.0805 21.8257 34.7872 21.6227 34.4536 21.477C34.1199 21.3313 33.762 21.2584 33.3799 21.2584C33.0085 21.2584 32.656 21.3313 32.3224 21.477C31.9887 21.6227 31.6927 21.8257 31.4344 22.086C31.176 22.341 30.9742 22.6377 30.8289 22.976C30.6836 23.3091 30.6109 23.6682 30.6109 24.0534C30.6109 24.4385 30.6809 24.8003 30.8208 25.1386C30.9661 25.4769 31.1653 25.7762 31.4182 26.0364C31.6712 26.2915 31.9645 26.4944 32.2981 26.6454C32.6318 26.7911 32.9924 26.864 33.3799 26.864C33.762 26.864 34.1199 26.7911 34.4536 26.6454C34.7872 26.4996 35.0805 26.2993 35.3335 26.0442C35.5864 25.7892 35.7829 25.4925 35.9228 25.1542ZM34.9944 23.0619C35.1667 23.3585 35.2528 23.689 35.2528 24.0534C35.2528 24.4125 35.1693 24.7456 35.0025 25.0527C34.8357 25.3546 34.6096 25.5966 34.3244 25.7788C34.0445 25.9609 33.7297 26.052 33.3799 26.052C33.0355 26.052 32.7206 25.9609 32.4354 25.7788C32.1501 25.5966 31.9214 25.3546 31.7492 25.0527C31.5824 24.7508 31.4989 24.4177 31.4989 24.0534C31.4989 23.6942 31.5824 23.3637 31.7492 23.0619C31.9214 22.76 32.1475 22.518 32.4273 22.3358C32.7125 22.1536 33.0301 22.0625 33.3799 22.0625C33.7243 22.0625 34.0365 22.1536 34.3163 22.3358C34.6016 22.518 34.8276 22.76 34.9944 23.0619ZM40.1581 26.2862V26.7937H41.0138V24.8107V24.7248V21.3287H40.1581V24.8419C40.1581 25.0553 40.1016 25.2479 39.9886 25.4196C39.881 25.5914 39.733 25.7267 39.5446 25.8256C39.3562 25.9245 39.141 25.974 38.8988 25.974C38.6674 25.974 38.4548 25.9245 38.261 25.8256C38.0727 25.7267 37.922 25.5914 37.809 25.4196C37.7013 25.2479 37.6475 25.0553 37.6475 24.8419L37.6394 21.3287H36.7837V24.8419C36.7837 25.2115 36.8752 25.5472 37.0582 25.849C37.2466 26.1457 37.4995 26.3851 37.817 26.5673C38.1346 26.7443 38.4951 26.8328 38.8988 26.8328C39.1463 26.8328 39.3751 26.7833 39.585 26.6844C39.8002 26.5803 39.9913 26.4476 40.1581 26.2862ZM44.6566 26.7937H45.6819L44.2934 24.5374C44.5086 24.4698 44.6997 24.3553 44.8665 24.1939C45.0388 24.0326 45.1733 23.8452 45.2702 23.6318C45.367 23.4132 45.4155 23.192 45.4155 22.9682C45.4155 22.6819 45.3509 22.4139 45.2217 22.164C45.098 21.9142 44.9257 21.7138 44.7051 21.5629C44.4898 21.4067 44.2422 21.3287 43.9624 21.3287H41.8312L41.8231 26.7937H42.6788V24.6077H43.3085L44.6566 26.7937ZM44.4629 22.5934C44.5167 22.7183 44.5436 22.8433 44.5436 22.9682C44.5436 23.0827 44.514 23.1998 44.4548 23.3195C44.401 23.4392 44.3257 23.5381 44.2288 23.6162C44.1373 23.6942 44.0297 23.7333 43.9059 23.7333H42.6788V22.1562H43.914C44.0377 22.1562 44.1454 22.1979 44.2369 22.2811C44.3337 22.3644 44.4091 22.4685 44.4629 22.5934ZM48.5812 22.0938H50.2361V21.3287H46.0706V22.0938H47.7255V26.7937H48.5812V22.0938ZM53.5839 24.9356L55.4083 21.3287H54.5446L53.148 24.0846L51.7433 21.3287H50.8795L52.7121 24.9356V26.7937H53.5839V24.9356ZM56.8105 21.3287L55.0183 26.7859H55.9305L56.3665 25.4431H58.3443L58.7802 26.7859H59.6924L57.8922 21.3287H56.8105ZM56.5925 24.7326L57.3594 22.3592L58.1183 24.7326H56.5925ZM63.254 26.7937H64.2793L62.8908 24.5374C63.106 24.4698 63.2971 24.3553 63.4639 24.1939C63.6361 24.0326 63.7707 23.8452 63.8675 23.6318C63.9644 23.4132 64.0129 23.192 64.0129 22.9682C64.0129 22.6819 63.9483 22.4139 63.8191 22.164C63.6953 21.9142 63.5231 21.7138 63.3025 21.5629C63.0872 21.4067 62.8396 21.3287 62.5598 21.3287H60.4286L60.4205 26.7937H61.2762V24.6077H61.9059L63.254 26.7937ZM63.0603 22.5934C63.1141 22.7183 63.141 22.8433 63.141 22.9682C63.141 23.0827 63.1114 23.1998 63.0522 23.3195C62.9984 23.4392 62.923 23.5381 62.8262 23.6162C62.7347 23.6942 62.627 23.7333 62.5033 23.7333H61.2762V22.1562H62.5113C62.6351 22.1562 62.7428 22.1979 62.8342 22.2811C62.9311 22.3644 63.0065 22.4685 63.0603 22.5934ZM69.2226 25.1074C69.3626 24.7742 69.4325 24.4203 69.4325 24.0456C69.4325 23.676 69.3626 23.3273 69.2226 22.9994C69.0827 22.6663 68.889 22.3748 68.6414 22.125C68.3938 21.87 68.1032 21.6696 67.7695 21.5238C67.4412 21.3781 67.0834 21.3052 66.6959 21.3052H65.0087V26.7937H66.6959C67.078 26.7937 67.4332 26.7235 67.7615 26.5829C68.0951 26.4372 68.3858 26.2394 68.6333 25.9896C68.8863 25.7345 69.0827 25.4405 69.2226 25.1074ZM68.2943 23.0853C68.4611 23.3715 68.5445 23.6916 68.5445 24.0456C68.5445 24.3943 68.4638 24.7144 68.3023 25.0059C68.1409 25.2921 67.9202 25.5211 67.6404 25.6929C67.3605 25.8647 67.0457 25.9505 66.6959 25.9505H65.8724V22.1484H66.6959C67.0457 22.1484 67.3578 22.2343 67.6323 22.4061C67.9122 22.5726 68.1328 22.799 68.2943 23.0853ZM71.2867 26.7703C71.5289 26.838 71.7711 26.8718 72.0133 26.8718C72.3523 26.8718 72.6618 26.7989 72.9416 26.6532C73.2269 26.5022 73.4529 26.3019 73.6197 26.052C73.7866 25.797 73.87 25.5133 73.87 25.201C73.87 24.8523 73.8 24.5739 73.6601 24.3657C73.5256 24.1575 73.3264 23.9909 73.0627 23.866C72.799 23.7411 72.4788 23.6292 72.1021 23.5303C71.8868 23.4678 71.6957 23.408 71.5289 23.3507C71.3675 23.2883 71.241 23.2102 71.1495 23.1165C71.058 23.0228 71.0149 22.8927 71.0203 22.7262C71.0257 22.5752 71.0768 22.4555 71.1737 22.367C71.2706 22.2733 71.3944 22.2083 71.5451 22.1718C71.7011 22.1302 71.8626 22.112 72.0294 22.1172C72.2232 22.1172 72.4142 22.1458 72.6026 22.2031C72.7909 22.2603 72.9685 22.328 73.1354 22.4061L73.7408 21.7815C73.4502 21.6045 73.1515 21.477 72.8448 21.3989C72.5434 21.3208 72.2555 21.2818 71.981 21.2818C71.4859 21.2818 71.0688 21.3963 70.7297 21.6253C70.396 21.8491 70.2023 22.1822 70.1485 22.6247C70.1108 22.989 70.17 23.2831 70.3261 23.5069C70.4875 23.7255 70.727 23.905 71.0445 24.0456C71.3675 24.1861 71.7522 24.3136 72.1989 24.4281C72.4519 24.4958 72.651 24.5947 72.7963 24.7248C72.9416 24.8497 73.0116 25.0085 73.0062 25.201C73.0062 25.4301 72.9067 25.6226 72.7075 25.7788C72.5138 25.9349 72.277 26.013 71.9971 26.013C71.7872 26.013 71.5639 25.9661 71.3271 25.8725C71.0957 25.7736 70.8938 25.6435 70.7216 25.4821L70.0758 26.0755C70.2265 26.2264 70.4068 26.3617 70.6167 26.4814C70.8266 26.6011 71.0499 26.6974 71.2867 26.7703Z" fill="#0F1210"/>
</g>
<defs>
<clipPath id="clip0_182_910">
<rect width="74" height="27" fill="white"/>
</clipPath>
</defs>
</svg>
