<svg width="29" height="24" viewBox="0 0 29 24" fill="none" xmlns="http://www.w3.org/2000/svg">
<path id="Vector" d="M3.49996 23.3333C2.72079 23.3333 2.05378 23.0559 1.49892 22.501C0.944057 21.9461 0.666626 21.2791 0.666626 20.5V3.49996C0.666626 2.72079 0.944057 2.05378 1.49892 1.49892C2.05378 0.944057 2.72079 0.666626 3.49996 0.666626H26.1666C26.9458 0.666626 27.6128 0.944057 28.1677 1.49892C28.7225 2.05378 29 2.72079 29 3.49996V20.5C29 21.2791 28.7225 21.9461 28.1677 22.501C27.6128 23.0559 26.9458 23.3333 26.1666 23.3333H3.49996ZM26.1666 6.33329L15.577 12.9562C15.459 13.027 15.335 13.0802 15.2052 13.1156C15.0753 13.151 14.9513 13.1687 14.8333 13.1687C14.7152 13.1687 14.5913 13.151 14.4614 13.1156C14.3316 13.0802 14.2076 13.027 14.0895 12.9562L3.49996 6.33329V20.5H26.1666V6.33329ZM14.8333 10.5833L26.1666 3.49996H3.49996L14.8333 10.5833ZM3.49996 6.68746V4.59788V4.63329V4.61558V6.68746Z" fill="#A1DBB2"/>
</svg>
