<svg width="18" height="18" viewBox="0 0 18 18" fill="none" xmlns="http://www.w3.org/2000/svg">
<g id="Star">
<path id="Vector" d="M9.00001 12.9562L5.88751 14.8312C5.75001 14.9187 5.60626 14.9562 5.45626 14.9437C5.30626 14.9312 5.17501 14.8812 5.06251 14.7937C4.95001 14.7062 4.86251 14.5968 4.80001 14.4655C4.73751 14.3343 4.72501 14.1874 4.76251 14.0249L5.58751 10.4812L2.83126 8.0999C2.70626 7.9874 2.62814 7.85928 2.59689 7.71553C2.56564 7.57178 2.57501 7.43115 2.62501 7.29365C2.67501 7.15615 2.75001 7.04365 2.85001 6.95615C2.95001 6.86865 3.08751 6.8124 3.26251 6.7874L6.90001 6.46865L8.30626 3.13115C8.36876 2.98115 8.46564 2.86865 8.59689 2.79365C8.72814 2.71865 8.86251 2.68115 9.00001 2.68115C9.13751 2.68115 9.27189 2.71865 9.40314 2.79365C9.53439 2.86865 9.63126 2.98115 9.69376 3.13115L11.1 6.46865L14.7375 6.7874C14.9125 6.8124 15.05 6.86865 15.15 6.95615C15.25 7.04365 15.325 7.15615 15.375 7.29365C15.425 7.43115 15.4344 7.57178 15.4031 7.71553C15.3719 7.85928 15.2938 7.9874 15.1688 8.0999L12.4125 10.4812L13.2375 14.0249C13.275 14.1874 13.2625 14.3343 13.2 14.4655C13.1375 14.5968 13.05 14.7062 12.9375 14.7937C12.825 14.8812 12.6938 14.9312 12.5438 14.9437C12.3938 14.9562 12.25 14.9187 12.1125 14.8312L9.00001 12.9562Z" fill="#4CBD6E"/>
</g>
</svg>
