<svg width="24" height="24" viewBox="0 0 24 24" fill="none" xmlns="http://www.w3.org/2000/svg">
<g id="Amenity Vector">
<path id="Vector" d="M3 20.0001C2.71667 20.0001 2.47917 19.9043 2.2875 19.7126C2.09583 19.5209 2 19.2834 2 19.0001C2 18.7168 2.09583 18.4793 2.2875 18.2876C2.47917 18.0959 2.71667 18.0001 3 18.0001H7.75C7.46667 16.9501 7 16.0001 6.35 15.1501C5.7 14.3001 4.91667 13.6084 4 13.0751C3.63333 12.8584 3.45833 12.6209 3.475 12.3626C3.49167 12.1043 3.71667 11.9834 4.15 12.0001C6.33333 12.0334 8.1875 12.8251 9.7125 14.3751C11.2375 15.9251 12 17.8001 12 20.0001H3ZM14 20.0001C14 19.3001 13.925 18.6043 13.775 17.9126C13.625 17.2209 13.4083 16.5584 13.125 15.9251C13.825 14.7751 14.7625 13.8418 15.9375 13.1251C17.1125 12.4084 18.4167 12.0334 19.85 12.0001C20.25 11.9834 20.4583 12.1126 20.475 12.3876C20.4917 12.6626 20.3333 12.8918 20 13.0751C19.0833 13.6084 18.3 14.3001 17.65 15.1501C17 16.0001 16.5333 16.9501 16.25 18.0001H21C21.2833 18.0001 21.5208 18.0959 21.7125 18.2876C21.9042 18.4793 22 18.7168 22 19.0001C22 19.2834 21.9042 19.5209 21.7125 19.7126C21.5208 19.9043 21.2833 20.0001 21 20.0001H14ZM12 14.0251C12 12.2584 12.5042 10.6876 13.5125 9.3126C14.5208 7.9376 15.8167 6.98344 17.4 6.4501C17.7833 6.31677 18.0667 6.35844 18.25 6.5751C18.4333 6.79177 18.3583 7.05844 18.025 7.3751C17.4917 7.8751 17.0292 8.43344 16.6375 9.0501C16.2458 9.66677 15.9167 10.3251 15.65 11.0251C14.9167 11.3751 14.2458 11.8043 13.6375 12.3126C13.0292 12.8209 12.4833 13.3918 12 14.0251ZM10.175 12.1501C9.975 12.0001 9.775 11.8584 9.575 11.7251C9.375 11.5918 9.16667 11.4584 8.95 11.3251C8.95 11.2251 8.95833 11.1209 8.975 11.0126C8.99167 10.9043 9 10.8001 9 10.7001C9 9.81677 8.90417 8.9751 8.7125 8.1751C8.52083 7.3751 8.24167 6.6001 7.875 5.8501C7.69167 5.48344 7.70417 5.2126 7.9125 5.0376C8.12083 4.8626 8.39167 4.90844 8.725 5.1751C9.325 5.65844 9.85417 6.20844 10.3125 6.8251C10.7708 7.44177 11.1417 8.11677 11.425 8.8501C11.125 9.3501 10.8667 9.87927 10.65 10.4376C10.4333 10.9959 10.275 11.5668 10.175 12.1501Z" fill="#F7F9F7"/>
</g>
</svg>
