<svg width="32" height="32" viewBox="0 0 32 32" fill="none" xmlns="http://www.w3.org/2000/svg">
<g id="Amenity Vector">
<path id="Vector" d="M12.4444 29.3332C10.6 29.3332 9.02777 28.6832 7.72777 27.3832C6.42777 26.0832 5.77777 24.5109 5.77777 22.6665C5.77777 21.5332 6.03333 20.4887 6.54444 19.5332C7.05555 18.5776 7.73333 17.7998 8.57777 17.1998C8.88888 16.9776 9.22222 16.8998 9.57777 16.9665C9.93333 17.0332 10.2222 17.2221 10.4444 17.5332C10.6667 17.8443 10.75 18.1776 10.6944 18.5332C10.6389 18.8887 10.4555 19.1776 10.1444 19.3998C9.63333 19.7776 9.22222 20.2498 8.9111 20.8165C8.59999 21.3832 8.44444 21.9998 8.44444 22.6665C8.44444 23.7776 8.83333 24.7221 9.6111 25.4998C10.3889 26.2776 11.3333 26.6665 12.4444 26.6665C13.1111 26.6665 13.7278 26.5109 14.2944 26.1998C14.8611 25.8887 15.3333 25.4776 15.7111 24.9665C15.9333 24.6554 16.2222 24.4721 16.5778 24.4165C16.9333 24.3609 17.2667 24.4443 17.5778 24.6665C17.8889 24.8887 18.0778 25.1776 18.1444 25.5332C18.2111 25.8887 18.1333 26.2221 17.9111 26.5332C17.3111 27.3776 16.5333 28.0554 15.5778 28.5665C14.6222 29.0776 13.5778 29.3332 12.4444 29.3332ZM23.1111 29.3332C22.7333 29.3332 22.4167 29.2054 22.1611 28.9498C21.9055 28.6943 21.7778 28.3776 21.7778 27.9998V22.6665H15.1111C14.3778 22.6665 13.75 22.4054 13.2278 21.8832C12.7055 21.3609 12.4444 20.7332 12.4444 19.9998V11.9998C12.4444 11.2665 12.7055 10.6387 13.2278 10.1165C13.75 9.59428 14.3778 9.33317 15.1111 9.33317C15.6444 9.33317 16.1055 9.44984 16.4944 9.68317C16.8833 9.9165 17.3 10.2887 17.7444 10.7998C18.7444 11.9998 19.65 12.8776 20.4611 13.4332C21.2722 13.9887 22.1444 14.3554 23.0778 14.5332C23.4555 14.5998 23.7778 14.7665 24.0444 15.0332C24.3111 15.2998 24.4444 15.6221 24.4444 15.9998C24.4444 16.3776 24.3055 16.6887 24.0278 16.9332C23.75 17.1776 23.4333 17.2665 23.0778 17.1998C22.1 17.0221 21.15 16.7109 20.2278 16.2665C19.3055 15.8221 18.4889 15.3109 17.7778 14.7332V19.3332H21.7778C22.5111 19.3332 23.1389 19.5943 23.6611 20.1165C24.1833 20.6387 24.4444 21.2665 24.4444 21.9998V27.9998C24.4444 28.3776 24.3167 28.6943 24.0611 28.9498C23.8055 29.2054 23.4889 29.3332 23.1111 29.3332ZM15.1111 7.99984C14.3778 7.99984 13.75 7.73873 13.2278 7.2165C12.7055 6.69428 12.4444 6.0665 12.4444 5.33317C12.4444 4.59984 12.7055 3.97206 13.2278 3.44984C13.75 2.92762 14.3778 2.6665 15.1111 2.6665C15.8444 2.6665 16.4722 2.92762 16.9944 3.44984C17.5167 3.97206 17.7778 4.59984 17.7778 5.33317C17.7778 6.0665 17.5167 6.69428 16.9944 7.2165C16.4722 7.73873 15.8444 7.99984 15.1111 7.99984Z" fill="#F7F9F7"/>
</g>
</svg>
