<svg width="24" height="24" viewBox="0 0 24 24" fill="none" xmlns="http://www.w3.org/2000/svg">
<g id="Amenity Vector">
<path id="Vector" d="M12 21C11.3 21 10.7083 20.7583 10.225 20.275C9.74164 19.7917 9.49997 19.2 9.49997 18.5C9.49997 17.8 9.74164 17.2083 10.225 16.725C10.7083 16.2417 11.3 16 12 16C12.7 16 13.2916 16.2417 13.775 16.725C14.2583 17.2083 14.5 17.8 14.5 18.5C14.5 19.2 14.2583 19.7917 13.775 20.275C13.2916 20.7583 12.7 21 12 21ZM12 10C13.25 10 14.4375 10.2 15.5625 10.6C16.6875 11 17.7083 11.55 18.625 12.25C18.9583 12.5 19.1291 12.8292 19.1375 13.2375C19.1458 13.6458 19 14 18.7 14.3C18.4166 14.5833 18.0666 14.7292 17.65 14.7375C17.2333 14.7458 16.8583 14.6333 16.525 14.4C15.8916 13.9667 15.1916 13.625 14.425 13.375C13.6583 13.125 12.85 13 12 13C11.15 13 10.3416 13.125 9.57497 13.375C8.80831 13.625 8.10831 13.9667 7.47497 14.4C7.14164 14.6333 6.76664 14.7417 6.34997 14.725C5.93331 14.7083 5.58331 14.5583 5.29997 14.275C5.01664 13.975 4.87497 13.6208 4.87497 13.2125C4.87497 12.8042 5.04164 12.475 5.37497 12.225C6.29164 11.525 7.31247 10.9792 8.43747 10.5875C9.56247 10.1958 10.75 10 12 10ZM12 4C14.0833 4 16.0458 4.34167 17.8875 5.025C19.7291 5.70833 21.3833 6.675 22.85 7.925C23.1833 8.20833 23.3583 8.55833 23.375 8.975C23.3916 9.39167 23.25 9.75 22.95 10.05C22.6666 10.3333 22.3166 10.4792 21.9 10.4875C21.4833 10.4958 21.1083 10.3667 20.775 10.1C19.575 9.11667 18.2291 8.35417 16.7375 7.8125C15.2458 7.27083 13.6666 7 12 7C10.3333 7 8.75414 7.27083 7.26247 7.8125C5.77081 8.35417 4.42497 9.11667 3.22497 10.1C2.89164 10.3667 2.51664 10.4958 2.09997 10.4875C1.68331 10.4792 1.33331 10.3333 1.04997 10.05C0.749973 9.75 0.608306 9.39167 0.624973 8.975C0.64164 8.55833 0.81664 8.20833 1.14997 7.925C2.61664 6.675 4.27081 5.70833 6.11247 5.025C7.95414 4.34167 9.91664 4 12 4Z" fill="#F7F9F7"/>
</g>
</svg>
